<svg version="1.1" id="Layer_1" xmlns="http://www.w3.org/2000/svg" xmlns:xlink="http://www.w3.org/1999/xlink" x="0px" y="0px"
	 width="100%" viewBox="0 0 128 128" enable-background="new 0 0 128 128" xml:space="preserve">
<path fill="#FFFFFF" opacity="1.000000" stroke="none" 
	d="
M129.000000,62.000000 
	C129.000000,84.295982 129.000000,106.591972 129.000000,128.943970 
	C86.442101,128.943970 43.884102,128.943970 1.000000,128.943970 
	C1.000000,106.980179 1.000000,84.958748 1.342800,62.548004 
	C4.554328,63.773132 7.243108,66.120110 10.322596,66.876587 
	C24.479387,70.354218 38.745277,73.387749 53.000004,76.586899 
	C53.000004,78.941429 53.129803,81.112259 52.972691,83.262123 
	C52.656265,87.591957 54.657116,89.237900 58.859966,89.040321 
	C62.847347,88.852867 66.861359,88.814880 70.843742,89.049408 
	C75.279289,89.310616 77.382942,87.641357 77.030464,83.057526 
	C76.855301,80.779633 77.000000,78.477142 77.000000,75.993958 
	C78.437294,75.993958 79.453140,76.169739 80.386650,75.966805 
	C89.823921,73.915268 99.337204,72.130661 108.645935,69.597755 
	C115.616951,67.700935 123.546524,68.053963 129.000000,62.000000 
M120.000000,108.166183 
	C120.387733,112.394554 118.528389,114.065887 114.232628,114.053200 
	C81.406166,113.956200 48.579155,113.955551 15.752698,114.053818 
	C11.440085,114.066727 9.890201,112.366432 9.947457,108.150620 
	C10.101321,96.821648 10.083878,85.487793 9.890934,74.160011 
	C9.867510,72.784813 8.352611,71.435020 7.528945,70.073448 
	C6.201136,71.033440 4.717091,71.845703 3.611088,73.015419 
	C3.053717,73.604904 3.026950,74.842140 3.023838,75.787346 
	C2.987084,86.951653 2.825841,98.119743 3.057067,109.279381 
	C3.232588,117.750572 6.919531,120.986305 15.549955,120.996925 
	C26.047834,121.009850 36.545742,121.000000 47.043636,121.000000 
	C69.705757,121.000000 92.367889,121.015442 115.029991,120.990753 
	C121.978996,120.983185 125.408920,119.111526 125.855286,112.883186 
	C126.776413,100.030266 126.798256,87.103851 126.803932,74.207497 
	C126.804543,72.822662 124.362000,70.436775 122.863258,70.275375 
	C120.339478,70.003609 119.921585,72.344421 119.947922,74.738686 
	C120.067039,85.568535 120.000000,96.400436 120.000000,108.166183 
z"/>
<path fill="#FFFFFF" opacity="1.000000" stroke="none" 
	d="
M1.000000,34.000000 
	C1.000000,23.024860 1.000000,12.049721 1.000000,1.037291 
	C43.545353,1.037291 86.090744,1.037291 129.000000,1.037291 
	C129.000000,11.684808 129.000000,22.373745 128.649597,33.445618 
	C125.969864,30.966005 123.066231,29.916042 119.288757,29.928827 
	C83.854179,30.048759 48.418724,30.069590 12.984402,29.915707 
	C8.330294,29.895494 4.294903,30.570133 1.000000,34.000000 
M62.510628,9.000000 
	C58.857491,9.000141 55.198044,8.862999 51.552601,9.030534 
	C45.039143,9.329871 40.191559,14.303427 41.158051,20.125818 
	C41.451752,21.895164 43.608776,23.355209 44.912376,24.956919 
	C45.941570,23.478762 47.659611,22.086823 47.857635,20.504633 
	C48.279739,17.132168 49.871445,15.951097 53.043629,15.978990 
	C60.515381,16.044689 67.990166,16.104670 75.459610,15.957823 
	C79.462730,15.879122 82.251381,16.554600 82.161560,21.519821 
	C82.141159,22.647522 83.950974,24.556068 85.119591,24.726645 
	C86.096794,24.869282 87.796036,23.216749 88.429367,21.977753 
	C90.394379,18.133541 87.444679,10.869981 83.094986,10.203865 
	C76.654831,9.217614 70.043961,9.346103 62.510628,9.000000 
z"/>
<path fill="#000000" opacity="1.000000" stroke="none" 
	d="
M1.000000,34.468658 
	C4.294903,30.570133 8.330294,29.895494 12.984402,29.915707 
	C48.418724,30.069590 83.854179,30.048759 119.288757,29.928827 
	C123.066231,29.916042 125.969864,30.966005 128.649597,33.914276 
	C129.000000,43.020897 129.000000,52.041790 129.000000,61.531342 
	C123.546524,68.053963 115.616951,67.700935 108.645935,69.597755 
	C99.337204,72.130661 89.823921,73.915268 80.386650,75.966805 
	C79.453140,76.169739 78.437294,75.993958 77.000000,75.993958 
	C77.000000,78.477142 76.855301,80.779633 77.030464,83.057526 
	C77.382942,87.641357 75.279289,89.310616 70.843742,89.049408 
	C66.861359,88.814880 62.847347,88.852867 58.859966,89.040321 
	C54.657116,89.237900 52.656265,87.591957 52.972691,83.262123 
	C53.129803,81.112259 53.000004,78.941429 53.000004,76.586899 
	C38.745277,73.387749 24.479387,70.354218 10.322596,66.876587 
	C7.243108,66.120110 4.554328,63.773132 1.342800,62.079346 
	C1.000000,52.979103 1.000000,43.958210 1.000000,34.468658 
M119.372986,60.001102 
	C120.581970,58.346882 122.622269,56.792137 122.834496,55.018635 
	C123.345322,50.749725 122.954880,46.377754 123.013184,42.048504 
	C123.066605,38.081902 121.310959,35.992435 117.223389,35.993759 
	C82.416565,36.005047 47.609737,36.007107 12.802920,35.990967 
	C8.713113,35.989071 6.937106,38.053005 6.989184,42.022160 
	C7.039433,45.851917 7.309448,49.714756 6.918638,53.504875 
	C6.469362,57.861992 8.524566,59.868626 12.351192,60.731781 
	C24.600149,63.494720 36.847183,66.267708 49.120129,68.920349 
	C50.300652,69.175507 52.750797,68.694862 52.769043,68.429230 
	C53.122181,63.287937 57.005352,65.215302 59.572910,65.065224 
	C63.722233,64.822708 67.919914,64.737434 72.049400,65.112221 
	C74.074440,65.296013 75.992111,66.662849 77.958374,67.494278 
	C77.861839,68.092957 77.765312,68.691643 77.668777,69.290321 
	C81.271469,68.526909 84.885124,67.811447 88.474762,66.990921 
	C98.498634,64.699646 108.512566,62.364864 119.372986,60.001102 
M60.726669,71.057457 
	C60.422512,74.654594 60.118359,78.251724 59.826561,81.702682 
	C63.724968,81.702682 66.777901,81.702682 69.745773,81.702682 
	C69.745773,78.019180 69.745773,74.639130 69.745773,71.004082 
	C66.892036,71.004082 64.285072,71.004082 60.726669,71.057457 
z"/>
<path fill="#000000" opacity="1.000000" stroke="none" 
	d="
M120.000000,107.698891 
	C120.000000,96.400436 120.067039,85.568535 119.947922,74.738686 
	C119.921585,72.344421 120.339478,70.003609 122.863258,70.275375 
	C124.362000,70.436775 126.804543,72.822662 126.803932,74.207497 
	C126.798256,87.103851 126.776413,100.030266 125.855286,112.883186 
	C125.408920,119.111526 121.978996,120.983185 115.029991,120.990753 
	C92.367889,121.015442 69.705757,121.000000 47.043636,121.000000 
	C36.545742,121.000000 26.047834,121.009850 15.549955,120.996925 
	C6.919531,120.986305 3.232588,117.750572 3.057067,109.279381 
	C2.825841,98.119743 2.987084,86.951653 3.023838,75.787346 
	C3.026950,74.842140 3.053717,73.604904 3.611088,73.015419 
	C4.717091,71.845703 6.201136,71.033440 7.528945,70.073448 
	C8.352611,71.435020 9.867510,72.784813 9.890934,74.160011 
	C10.083878,85.487793 10.101321,96.821648 9.947457,108.150620 
	C9.890201,112.366432 11.440085,114.066727 15.752698,114.053818 
	C48.579155,113.955551 81.406166,113.956200 114.232628,114.053200 
	C118.528389,114.065887 120.387733,112.394554 120.000000,107.698891 
z"/>
<path fill="#000000" opacity="1.000000" stroke="none" 
	d="
M63.008202,9.000000 
	C70.043961,9.346103 76.654831,9.217614 83.094986,10.203865 
	C87.444679,10.869981 90.394379,18.133541 88.429367,21.977753 
	C87.796036,23.216749 86.096794,24.869282 85.119591,24.726645 
	C83.950974,24.556068 82.141159,22.647522 82.161560,21.519821 
	C82.251381,16.554600 79.462730,15.879122 75.459610,15.957823 
	C67.990166,16.104670 60.515381,16.044689 53.043629,15.978990 
	C49.871445,15.951097 48.279739,17.132168 47.857635,20.504633 
	C47.659611,22.086823 45.941570,23.478762 44.912376,24.956919 
	C43.608776,23.355209 41.451752,21.895164 41.158051,20.125818 
	C40.191559,14.303427 45.039143,9.329871 51.552601,9.030534 
	C55.198044,8.862999 58.857491,9.000141 63.008202,9.000000 
z"/>
<path fill="#FFFFFF" opacity="1.000000" stroke="none" 
	d="
M118.951706,60.024181 
	C108.512566,62.364864 98.498634,64.699646 88.474762,66.990921 
	C84.885124,67.811447 81.271469,68.526909 77.668777,69.290321 
	C77.765312,68.691643 77.861839,68.092957 77.958374,67.494278 
	C75.992111,66.662849 74.074440,65.296013 72.049400,65.112221 
	C67.919914,64.737434 63.722233,64.822708 59.572910,65.065224 
	C57.005352,65.215302 53.122181,63.287937 52.769043,68.429230 
	C52.750797,68.694862 50.300652,69.175507 49.120129,68.920349 
	C36.847183,66.267708 24.600149,63.494720 12.351192,60.731781 
	C8.524566,59.868626 6.469362,57.861992 6.918638,53.504875 
	C7.309448,49.714756 7.039433,45.851917 6.989184,42.022160 
	C6.937106,38.053005 8.713113,35.989071 12.802920,35.990967 
	C47.609737,36.007107 82.416565,36.005047 117.223389,35.993759 
	C121.310959,35.992435 123.066605,38.081902 123.013184,42.048504 
	C122.954880,46.377754 123.345322,50.749725 122.834496,55.018635 
	C122.622269,56.792137 120.581970,58.346882 118.951706,60.024181 
z"/>
<path fill="#FFFFFF" opacity="1.000000" stroke="none" 
	d="
M61.202389,71.030769 
	C64.285072,71.004082 66.892036,71.004082 69.745773,71.004082 
	C69.745773,74.639130 69.745773,78.019180 69.745773,81.702682 
	C66.777901,81.702682 63.724968,81.702682 59.826561,81.702682 
	C60.118359,78.251724 60.422512,74.654594 61.202389,71.030769 
z"/>
</svg>