<?xml version="1.0" standalone="no"?>
<!DOCTYPE svg PUBLIC "-//W3C//DTD SVG 20010904//EN"
 "http://www.w3.org/TR/2001/REC-SVG-20010904/DTD/svg10.dtd">
<svg version="1.0" xmlns="http://www.w3.org/2000/svg"
 width="128.000000pt" height="128.000000pt" viewBox="0 0 128.000000 128.000000"
 preserveAspectRatio="xMidYMid meet">

<g transform="translate(0.000000,128.000000) scale(0.100000,-0.100000)"
fill="#000000" stroke="none">
<path d="M708 1089 c-26 -16 -190 -112 -365 -214 l-318 -183 0 -148 0 -147
204 -118 205 -119 65 37 c123 69 155 89 159 101 7 23 -24 11 -122 -47 l-99
-58 -191 110 c-105 60 -192 111 -194 112 -2 2 -2 15 0 29 3 26 6 25 193 -83
l190 -110 40 23 c158 91 185 108 185 116 0 19 -25 10 -124 -47 l-99 -56 -41
22 c-23 12 -108 61 -191 109 -130 76 -150 91 -153 115 -2 15 -1 27 2 27 2 0
87 -48 188 -107 101 -58 188 -106 193 -106 20 1 220 123 220 136 0 19 -20 11
-120 -48 -51 -30 -97 -55 -102 -55 -4 0 -91 49 -193 108 -165 96 -185 111
-188 136 -5 37 -8 38 205 -85 94 -54 174 -99 178 -99 3 0 72 39 153 86 81 47
152 87 157 88 6 1 28 13 50 27 80 52 83 52 87 21 5 -44 41 -37 155 29 56 32
105 59 108 59 4 0 5 -12 3 -27 -2 -22 -16 -35 -65 -63 -35 -19 -63 -41 -63
-47 0 -19 14 -16 70 17 28 17 53 30 55 30 3 0 5 -11 5 -25 0 -18 -11 -32 -40
-50 -39 -25 -52 -45 -28 -45 6 0 31 11 55 25 l43 26 0 143 0 144 -208 121
c-115 67 -210 121 -213 120 -2 0 -25 -14 -51 -30z m241 -110 c97 -56 177 -103
179 -104 1 -1 -49 -32 -112 -68 -101 -59 -147 -74 -146 -48 0 3 29 23 64 43
61 36 64 40 63 74 -1 35 -4 38 -102 95 -57 34 -112 59 -128 59 -16 0 -65 -22
-114 -50 -68 -41 -88 -48 -99 -39 -12 10 4 23 88 75 57 34 109 63 117 63 8 1
93 -45 190 -100z m-74 -29 c109 -65 113 -83 24 -135 l-61 -36 -119 67 -119 68
73 43 c39 23 82 43 94 43 12 0 61 -23 108 -50z m-193 -122 c116 -67 174 -106
168 -112 -5 -6 -28 -22 -52 -35 l-44 -24 -155 90 c-85 50 -167 97 -183 105
l-29 15 54 31 c30 17 56 32 58 32 3 0 85 -46 183 -102z m-368 -45 c-127 -73
-127 -73 -114 -88 8 -10 8 -15 0 -20 -20 -12 -6 -24 104 -88 81 -47 115 -62
136 -59 16 2 77 32 137 67 86 50 112 61 126 53 10 -5 17 -11 15 -12 -17 -14
-275 -159 -283 -159 -6 0 -91 46 -189 103 l-178 103 79 45 c43 25 107 62 142
83 52 31 68 36 84 27 17 -9 11 -15 -59 -55z m829 6 c-4 -4 -59 -37 -121 -73
l-113 -66 3 32 c3 29 13 38 118 99 114 67 115 67 118 42 2 -14 0 -29 -5 -34z
m-606 -45 c62 -36 113 -67 113 -69 0 -11 -195 -115 -216 -115 -13 0 -65 23
-115 51 -115 66 -115 73 6 144 50 29 92 54 94 54 3 1 55 -29 118 -65z"/>
<path d="M740 937 c-31 -16 -38 -46 -14 -64 27 -19 88 -16 108 6 22 24 12 47
-26 60 -38 13 -37 14 -68 -2z m69 -26 c11 -7 10 -11 -6 -19 -21 -11 -63 -6
-63 8 0 18 47 25 69 11z"/>
<path d="M372 714 c-26 -18 -28 -37 -6 -58 38 -39 138 -1 115 43 -19 34 -72
42 -109 15z m72 -20 c24 -9 9 -24 -24 -24 -29 0 -45 12 -33 24 8 8 37 8 57 0z"/>
<path d="M755 585 c-63 -22 -65 -30 -65 -207 0 -147 1 -158 21 -177 32 -30 99
-40 269 -39 168 0 213 7 254 39 25 20 26 24 26 125 0 58 -4 114 -10 124 -13
25 -83 49 -149 53 -43 2 -55 6 -57 21 -4 30 -33 53 -79 65 -60 15 -162 13
-210 -4z m228 -36 c50 -23 25 -46 -65 -61 -99 -17 -225 17 -186 50 39 32 190
39 251 11z m-109 -99 c34 1 78 7 99 14 l38 14 -3 -31 c-4 -45 -42 -61 -143
-61 -100 0 -145 20 -145 63 l0 29 47 -14 c25 -8 74 -14 107 -14z m306 7 c73
-25 25 -67 -76 -67 l-62 0 0 40 -1 40 52 -1 c29 0 68 -5 87 -12z m-370 -98
c51 -8 140 0 183 16 14 6 17 2 17 -24 0 -27 -5 -34 -35 -47 -41 -17 -166 -18
-215 -1 -30 10 -36 17 -38 46 -3 29 -1 33 15 27 10 -4 43 -12 73 -17z m406
-34 c-7 -18 -69 -35 -128 -35 -46 0 -47 1 -45 30 2 28 5 30 42 31 22 0 60 6
85 12 41 11 45 10 48 -6 2 -10 1 -25 -2 -32z m-331 -62 c44 2 90 8 103 12 21
7 23 5 20 -21 -4 -41 -45 -58 -143 -58 -100 0 -145 20 -145 63 l0 29 43 -15
c29 -10 67 -13 122 -10z m335 -12 c0 -25 -6 -31 -37 -42 -21 -6 -62 -12 -93
-13 -50 -1 -55 1 -52 19 6 42 11 45 69 46 32 0 67 4 78 9 32 14 35 12 35 -19z"/>
</g>
</svg>
