<?xml version="1.0" encoding="UTF-8"?>
<svg version="1.1" xmlns="http://www.w3.org/2000/svg" width="128" height="128">
<path d="M0 0 C1.65 0 3.3 0 5 0 C5 9.57 5 19.14 5 29 C6.32 29 7.64 29 9 29 C9 19.76 9 10.52 9 1 C10.65 0.67 12.3 0.34 14 0 C15 1 15 1 15.11352539 3.68383789 C15.10828857 4.85164795 15.10305176 6.01945801 15.09765625 7.22265625 C15.09443359 8.48271484 15.09121094 9.74277344 15.08789062 11.04101562 C15.07953403 12.38151109 15.07106907 13.72200588 15.0625 15.0625 C15.0574866 16.40689942 15.05292342 17.7513006 15.04882812 19.09570312 C15.03699488 22.39717941 15.02050971 25.69856803 15 29 C16.32 29 17.64 29 19 29 C19 19.43 19 9.86 19 0 C20.65 0 22.3 0 24 0 C24 9.57 24 19.14 24 29 C25.32 29 26.64 29 28 29 C28 19.76 28 10.52 28 1 C29.65 0.67 31.3 0.34 33 0 C35.0043759 2.0043759 34.18783119 6.01425151 34.203125 8.76171875 C34.20882507 9.54513138 34.21452515 10.32854401 34.22039795 11.13569641 C34.2298654 12.79935347 34.23638883 14.46302943 34.24023438 16.12670898 C34.24989392 18.6596823 34.28088038 21.19182833 34.3125 23.72460938 C34.31903456 25.34114102 34.32428325 26.95767847 34.328125 28.57421875 C34.3404718 29.32757004 34.3528186 30.08092133 34.36553955 30.85710144 C34.34027772 36.89302571 32.87598773 40.83977171 28.9375 45.375 C27 47 27 47 25 47 C25.00888245 47.94103073 25.01776489 48.88206146 25.0269165 49.85160828 C25.10803482 58.72381758 25.1679809 67.59595156 25.20724869 76.46844769 C25.2281155 81.02982233 25.25641641 85.59089738 25.30175781 90.15209961 C25.34524818 94.55469008 25.36914393 98.95699255 25.37950897 103.35978127 C25.38689464 105.03872015 25.4013173 106.71764344 25.42292023 108.39645958 C25.45199756 110.74992189 25.45595434 113.10219725 25.45410156 115.45581055 C25.47567322 116.49483017 25.47567322 116.49483017 25.49768066 117.55484009 C25.45742015 122.2873311 24.35815214 124.68801499 21 128 C19 128.62890625 19 128.62890625 17 128.5625 C16.34 128.56378906 15.68 128.56507813 15 128.56640625 C12.02621824 127.72422196 10.90108856 126.43182054 9 124 C8.62552921 121.34981499 8.49200824 119.1217251 8.54589844 116.47753906 C8.54531433 115.72593002 8.54473022 114.97432098 8.54412842 114.19993591 C8.54691002 111.72135865 8.57800383 109.24399155 8.609375 106.765625 C8.61683716 105.04498959 8.62253021 103.32434568 8.62652588 101.60369873 C8.64178425 97.07924861 8.68106758 92.55531372 8.7253418 88.03106689 C8.76629025 83.41270924 8.78453597 78.79426819 8.8046875 74.17578125 C8.84756182 65.11696137 8.91581546 56.05852356 9 47 C8.22219177 46.7227005 7.44438354 46.445401 6.64300537 46.15969849 C2.87092317 44.50458342 1.82305064 42.66846043 0 39 C-0.50563971 35.94470538 -0.46821874 32.97267106 -0.390625 29.8828125 C-0.38496521 29.02565643 -0.37930542 28.16850037 -0.37347412 27.28536987 C-0.35119639 24.5646632 -0.30101774 21.84530432 -0.25 19.125 C-0.2299238 17.27345661 -0.211675 15.42189244 -0.1953125 13.5703125 C-0.15136001 9.0463607 -0.08239359 4.52340836 0 0 Z M6 35 C7.45113221 40.09444212 7.45113221 40.09444212 11.07669067 41.83660889 C14 44 14 44 14.75949097 47.44219971 C14.79449322 48.83245242 14.79671652 50.22376765 14.77294922 51.61425781 C14.78357895 52.37562042 14.79420868 53.13698303 14.80516052 53.92141724 C14.83321847 56.43265845 14.81915236 58.94179869 14.8046875 61.453125 C14.8159371 63.19620602 14.82981751 64.93927188 14.84622192 66.68231201 C14.88229298 71.26589209 14.88262937 75.84880563 14.87554932 80.43249512 C14.8746371 85.11136841 14.90748504 89.78999097 14.9375 94.46875 C14.9913931 103.64590313 15.00754037 112.82270613 15 122 C16.98 121.505 16.98 121.505 19 121 C19.00142502 120.02947189 19.00285004 119.05894379 19.00431824 118.05900574 C19.02097427 108.92098471 19.06370468 99.78340979 19.13209057 90.64562511 C19.16640904 85.94752279 19.19147805 81.2497473 19.19555664 76.55151367 C19.19982926 72.01896255 19.22820489 67.48714933 19.27343178 62.95482826 C19.28644016 61.22408658 19.29070267 59.49325674 19.28615379 57.76247215 C19.28127114 55.34107774 19.30723168 52.92185959 19.34057617 50.50073242 C19.33195053 49.78216064 19.32332489 49.06358887 19.31443787 48.32324219 C19.36076355 46.32194519 19.36076355 46.32194519 20 43 C22.35371399 41.34370422 22.35371399 41.34370422 25 40 C25.99 38.35 26.98 36.7 28 35 C20.74 35 13.48 35 6 35 Z " fill="#000000" transform="translate(0,0)"/>
<path d="M0 0 C0.07003922 16.24614215 0.12296314 32.49223543 0.15543652 48.73849201 C0.17091433 56.28168595 0.1920212 63.82478615 0.22631836 71.36791992 C0.25619287 77.94148561 0.27556835 84.51498343 0.28226548 91.08861512 C0.28618109 94.57026869 0.29540197 98.05172806 0.31719017 101.53331947 C0.34129937 105.41718854 0.34197125 109.30086653 0.34057617 113.18481445 C0.351362 114.34287094 0.36214783 115.50092743 0.3732605 116.69407654 C0.36707451 118.27791641 0.36707451 118.27791641 0.36076355 119.89375305 C0.36352893 120.81278066 0.36629431 121.73180826 0.36914349 122.67868519 C-0.07202634 125.45292903 -0.77502204 126.33596088 -3 128 C-5.15625 128.3984375 -5.15625 128.3984375 -7.5 128.375 C-8.2734375 128.38273438 -9.046875 128.39046875 -9.84375 128.3984375 C-12.54184953 127.89987563 -13.29742909 127.11842443 -15 125 C-15.24712178 121.94083522 -15.32118535 119.07508116 -15.265625 116.01953125 C-15.26839797 114.19726355 -15.27234179 112.37499732 -15.27734375 110.55273438 C-15.26901562 107.68663201 -15.25012974 104.82164484 -15.20947266 101.95581055 C-14.47917694 89.56781499 -14.47917694 89.56781499 -19.484375 78.82421875 C-20.63429638 77.85611878 -21.80167881 76.90750375 -23 76 C-24.13178055 73.7364389 -24.14346595 72.45432217 -24.17700195 69.94018555 C-24.19625481 68.6819825 -24.19625481 68.6819825 -24.21589661 67.39836121 C-24.22328354 66.4870192 -24.23067047 65.57567719 -24.23828125 64.63671875 C-24.246353 63.69375443 -24.25442474 62.7507901 -24.26274109 61.7792511 C-24.2765967 59.77432091 -24.28731222 57.76936698 -24.29516602 55.7644043 C-24.31221753 52.73764045 -24.35606943 49.71201579 -24.40039062 46.68554688 C-24.53413883 30.21117512 -22.73520708 17.29044703 -10.9453125 4.828125 C-7.08989231 1.19093615 -5.38312284 -0.16708151 0 0 Z M-7.26953125 10.25 C-15.38456787 19.45388963 -18.26653307 29.09922705 -18.44140625 41.25 C-18.45517807 42.10754883 -18.46894989 42.96509766 -18.48313904 43.84863281 C-18.50626894 45.65032638 -18.52360595 47.45210283 -18.53540039 49.25390625 C-18.56243856 51.99377396 -18.63749212 54.72984399 -18.71289062 57.46875 C-19.24373641 66.29627468 -19.24373641 66.29627468 -16.43261719 74.31494141 C-15.154116 75.4253905 -13.87538764 76.53557808 -12.59643555 77.64550781 C-8.48714946 83.70606065 -10.06083732 93.32080685 -10.125 100.375 C-10.11827247 103.15394912 -10.10199645 105.93268875 -10.08297729 108.71157837 C-10.0746634 110.43435731 -10.07544526 112.15720901 -10.08621216 113.87997437 C-10.2223457 118.07279041 -10.2223457 118.07279041 -9 122 C-8.01 122 -7.02 122 -6 122 C-4.81221853 119.62443706 -4.87675422 118.19575841 -4.87974548 115.54550171 C-4.87837082 114.60878128 -4.87699615 113.67206085 -4.87557983 112.70695496 C-4.87917511 111.67621353 -4.88277039 110.64547211 -4.88647461 109.58349609 C-4.88632858 108.50055771 -4.88618256 107.41761932 -4.8860321 106.30186462 C-4.88673085 102.70903547 -4.89452148 99.11625764 -4.90234375 95.5234375 C-4.90420807 93.03764881 -4.9056319 90.55185975 -4.90663147 88.06607056 C-4.91006435 82.18353603 -4.91795227 76.30102057 -4.92798096 70.41849387 C-4.94024508 63.06545754 -4.94562374 55.71241893 -4.95117188 48.359375 C-4.96190732 35.23957391 -4.97879114 22.11978812 -5 9 C-6.17817739 8.88306596 -6.17817739 8.88306596 -7.26953125 10.25 Z " fill="#000000" transform="translate(128,0)"/>
<path d="M0 0 C7.90733205 6.12036435 12.51423207 13.49558754 14.25 23.375 C15.39477573 35.37924547 12.86293637 44.35773914 5.484375 53.890625 C-0.99767898 61.09794376 -9.07561493 64.64145157 -18.62890625 65.69140625 C-29.21941922 66.11944524 -38.66706772 63.26037713 -46.78125 56.3515625 C-54.31735184 48.78555549 -57.7989582 39.9849437 -58.125 29.375 C-57.76124828 18.42047692 -54.09341679 10.54005783 -46.75 2.375 C-33.42514613 -9.41605774 -14.455249 -9.79289474 0 0 Z M-44.75 9.375 C-50.73738273 16.79003116 -52.64552593 24.97197774 -51.75 34.375 C-50.28647813 42.29132285 -46.01703068 48.92951943 -39.76171875 53.98046875 C-31.96103778 59.14557984 -23.5964414 60.64072866 -14.42578125 58.9453125 C-6.7218398 56.76723481 -0.23669172 52.05669717 4.1875 45.375 C8.65570592 37.33222934 9.69368059 28.67695358 7.1875 19.8125 C4.03115946 11.47917101 -1.72543495 5.17947506 -9.75 1.375 C-22.70059647 -3.66134307 -35.02593705 -0.08471949 -44.75 9.375 Z " fill="#000000" transform="translate(85.75,34.625)"/>
<path d="M0 0 C2.16796875 0.33984375 2.16796875 0.33984375 4 1 C4.4375 3.0625 4.4375 3.0625 4 6 C-2.52932444 15.08611492 -14.27987816 20.85114675 -25 23 C-37.85912621 24.39486797 -50.48903876 23.17519208 -61 15 C-60.67 13.35 -60.34 11.7 -60 10 C-55.6671643 10.55907557 -52.09322641 12.21948426 -48.18359375 14.0625 C-39.90127273 17.618416 -28.52016901 17.26210798 -20.0625 14.375 C-13.42021119 11.54255252 -7.60785593 7.86418352 -2.6875 2.5625 C-1.800625 1.716875 -0.91375 0.87125 0 0 Z " fill="#000000" transform="translate(98,89)"/>
<path d="M0 0 C3.37198327 2.20784619 6.34572551 4.44882466 9 7.5 C8.75 9.75 8.75 9.75 8 11.5 C6.22265625 12.1953125 6.22265625 12.1953125 4 12.5 C2.24609375 11.2421875 2.24609375 11.2421875 0.4375 9.375 C-8.5452974 0.94836079 -18.93766195 -0.95628303 -30.79296875 -0.8046875 C-35.75642313 -0.58559532 -40.06326716 0.84591772 -44.64453125 2.72265625 C-47 3.5 -47 3.5 -50 2.5 C-50 0.85 -50 -0.8 -50 -2.5 C-48.41800369 -3.14910154 -46.83434276 -3.79414694 -45.25 -4.4375 C-44.36828125 -4.79714844 -43.4865625 -5.15679688 -42.578125 -5.52734375 C-28.37284087 -10.88661003 -12.56334544 -7.69691124 0 0 Z " fill="#000000" transform="translate(91,23.5)"/>
<path d="M0 0 C-0.0625 2.1875 -0.0625 2.1875 -1 5 C-2.51953125 6.234375 -2.51953125 6.234375 -4.375 7.4375 C-10.07777678 11.18104059 -11.36083472 16.69551816 -13 23 C-14.9375 23.5625 -14.9375 23.5625 -17 24 C-18.53123685 22.46876315 -18.24307107 21.06787176 -18.3125 18.9375 C-18.21763871 12.96123846 -16.4376934 8.49741417 -12.24609375 4.203125 C-7.88709684 0.38104003 -5.85394712 -1.38646116 0 0 Z " fill="#000000" transform="translate(59,43)"/>
<path d="M0 0 C1.65 0.33 3.3 0.66 5 1 C4.67 2.65 4.34 4.3 4 6 C2.35 5.67 0.7 5.34 -1 5 C-0.67 3.35 -0.34 1.7 0 0 Z " fill="#000000" transform="translate(30,93)"/>
<path d="M0 0 C1.65 0 3.3 0 5 0 C5.5625 1.9375 5.5625 1.9375 6 4 C5 5 5 5 2.4375 5.0625 C1.2309375 5.0315625 1.2309375 5.0315625 0 5 C0 3.35 0 1.7 0 0 Z " fill="#000000" transform="translate(61,41)"/>
</svg>
