<?xml version="1.0" standalone="no"?>
<!DOCTYPE svg PUBLIC "-//W3C//DTD SVG 20010904//EN"
 "http://www.w3.org/TR/2001/REC-SVG-20010904/DTD/svg10.dtd">
<svg version="1.0" xmlns="http://www.w3.org/2000/svg"
 width="128.000000pt" height="128.000000pt" viewBox="0 0 128.000000 128.000000"
 preserveAspectRatio="xMidYMid meet">

<g transform="translate(0.000000,128.000000) scale(0.100000,-0.100000)"
fill="#000000" stroke="none">
<path d="M332 1259 c-83 -41 -127 -161 -88 -237 9 -17 16 -33 16 -37 0 -3 -36
-5 -81 -5 -135 0 -179 -38 -179 -155 0 -61 19 -108 49 -125 19 -9 20 -26 23
-314 3 -291 4 -306 24 -333 40 -53 33 -53 544 -53 511 0 504 0 544 53 20 27
21 42 24 333 3 288 4 305 23 314 30 17 49 64 49 125 0 120 -40 155 -180 155
-44 0 -80 3 -80 8 1 4 7 18 15 32 21 37 18 107 -6 158 -27 55 -84 93 -149 100
-94 9 -165 -49 -215 -175 -10 -24 -21 -43 -25 -43 -4 0 -15 19 -25 43 -9 23
-30 63 -46 89 -53 83 -150 110 -237 67z m147 -76 c21 -14 77 -121 95 -180 7
-23 6 -23 -83 -23 -98 0 -129 8 -159 40 -42 45 -32 128 19 164 30 21 98 21
128 -1z m450 1 c51 -36 61 -119 19 -164 -30 -32 -61 -40 -159 -40 -89 0 -90 0
-83 23 18 59 74 166 95 180 30 22 98 22 128 1z m-439 -354 l0 -70 -202 2 -203
3 -3 54 c-2 29 -1 60 2 67 4 11 45 14 206 14 l200 0 0 -70z m220 -340 l0 -410
-70 0 -70 0 0 410 0 410 70 0 70 0 0 -410z m485 340 l0 -65 -202 -3 -203 -2 0
70 0 70 203 -2 202 -3 0 -65z m-705 -450 l0 -300 -167 2 -168 3 -3 298 -2 297
170 0 170 0 0 -300z m638 3 l-3 -298 -167 -3 -168 -2 0 300 0 300 170 0 170 0
-2 -297z"/>
</g>
</svg>
