<?xml version="1.0" encoding="UTF-8"?>
<svg version="1.1" xmlns="http://www.w3.org/2000/svg" width="128" height="128">
<path d="M0 0 C1.48831242 0.00667405 2.97660807 0.01863442 4.46484375 0.03515625 C5.22345703 0.03966797 5.98207031 0.04417969 6.76367188 0.04882812 C8.64326246 0.06064945 10.52281274 0.07858547 12.40234375 0.09765625 C12.39187012 0.78802979 12.38139648 1.47840332 12.37060547 2.18969727 C12.32878678 5.34647924 12.30293573 8.5032027 12.27734375 11.66015625 C12.25220703 13.28920898 12.25220703 13.28920898 12.2265625 14.95117188 C12.18256619 22.18856484 12.28781743 27.92586677 16.40234375 34.09765625 C16.93013428 33.44716309 17.4579248 32.79666992 18.00170898 32.12646484 C21.10959798 29.49994623 22.78465595 29.60750449 26.8125 29.63671875 C28.6677832 29.64251953 28.6677832 29.64251953 30.56054688 29.6484375 C31.84896484 29.67292969 33.13738281 29.69742187 34.46484375 29.72265625 C36.40327148 29.72458984 36.40327148 29.72458984 38.38085938 29.7265625 C47.98091518 29.81670387 47.98091518 29.81670387 51.40234375 32.09765625 C51.66752507 36.27426198 51.72120797 39.14106359 50.40234375 43.09765625 C51.10810547 44.09345703 51.10810547 44.09345703 51.828125 45.109375 C54.20218908 49.61597306 53.72100519 53.90247973 53.58984375 58.91015625 C53.56954102 60.3787207 53.56954102 60.3787207 53.54882812 61.87695312 C53.51359687 64.2844225 53.4643364 66.69075189 53.40234375 69.09765625 C54.41554687 69.04544922 54.41554687 69.04544922 55.44921875 68.9921875 C56.34125 68.96511719 57.23328125 68.93804687 58.15234375 68.91015625 C59.47492188 68.85794922 59.47492188 68.85794922 60.82421875 68.8046875 C63.8857369 69.15258729 65.19110685 69.99008594 67.40234375 72.09765625 C67.8984375 74.25390625 67.8984375 74.25390625 67.83984375 76.59765625 C67.83855469 77.37109375 67.83726563 78.14453125 67.8359375 78.94140625 C67.3034899 81.58925375 66.56277883 82.50761641 64.40234375 84.09765625 C61.21484375 84.28515625 61.21484375 84.28515625 58.40234375 84.09765625 C58.304375 85.268125 58.20640625 86.43859375 58.10546875 87.64453125 C57.39823464 93.96018128 56.02484907 100.13135507 54.61083984 106.31933594 C54.15088532 108.35410813 53.71620783 110.39335287 53.28125 112.43359375 C52.98461832 113.74384041 52.68649296 115.05375 52.38671875 116.36328125 C51.99564941 118.12333496 51.99564941 118.12333496 51.59667969 119.91894531 C50.13449603 123.81052979 48.63746254 125.48832202 45.40234375 128.09765625 C42.64524886 128.59372446 40.50375064 128.78418907 37.75390625 128.74462891 C37.00042908 128.7533905 36.2469519 128.7621521 35.47064209 128.7711792 C32.98895056 128.79312123 30.50905223 128.77864064 28.02734375 128.76171875 C26.29768534 128.76508842 24.56802923 128.7699423 22.83837891 128.7762146 C19.21689261 128.78357883 15.59602378 128.77289538 11.97460938 128.74951172 C7.3371567 128.72102364 2.70115083 128.7374301 -1.93624878 128.76737404 C-5.50686505 128.78545951 -9.07713943 128.77968338 -12.64776611 128.76673508 C-14.35736259 128.76340449 -16.06699031 128.76747596 -17.77655029 128.77913284 C-20.16827352 128.79186296 -22.55766857 128.77243837 -24.94921875 128.74462891 C-25.65274475 128.75475006 -26.35627075 128.76487122 -27.08111572 128.77529907 C-30.86930593 128.69387514 -32.49642747 128.17831773 -35.49430847 125.78953552 C-38.12030696 122.4287642 -38.99652558 119.18563876 -39.8359375 115.09375 C-40.00643112 114.33344986 -40.17692474 113.57314972 -40.35258484 112.78981018 C-40.88909876 110.37502488 -41.39937954 107.95550028 -41.91015625 105.53515625 C-42.27118911 103.90524432 -42.63380403 102.27568196 -42.99804688 100.64648438 C-43.34125303 99.08754917 -43.68309712 97.52831335 -44.0234375 95.96875 C-44.18274246 95.23949814 -44.34204742 94.51024628 -44.50617981 93.75889587 C-45.20677183 90.43033058 -45.59765625 87.51953031 -45.59765625 84.09765625 C-46.52578125 84.15953125 -47.45390625 84.22140625 -48.41015625 84.28515625 C-51.59765625 84.09765625 -51.59765625 84.09765625 -53.26953125 82.8671875 C-55.37432456 80.06285994 -55.07722819 77.59281956 -54.93359375 74.1953125 C-54.59765625 72.09765625 -54.59765625 72.09765625 -53.16015625 70.03515625 C-49.32421472 68.63176301 -45.63694804 68.86462019 -41.59765625 69.09765625 C-42.24734375 68.04578125 -42.24734375 68.04578125 -42.91015625 66.97265625 C-46.37990308 61.06123572 -48.76421149 56.98033215 -47.59765625 50.09765625 C-45.58262736 46.34553349 -44.14299483 44.4612153 -40.59765625 42.09765625 C-41.50532727 40.65445933 -42.42421731 39.21831519 -43.34765625 37.78515625 C-43.858125 36.98464844 -44.36859375 36.18414062 -44.89453125 35.359375 C-46.48080757 33.01024416 -46.48080757 33.01024416 -48.80078125 31.5546875 C-49.69023438 30.83345703 -49.69023438 30.83345703 -50.59765625 30.09765625 C-50.59765625 28.77765625 -50.59765625 27.45765625 -50.59765625 26.09765625 C-48.34765625 25.84765625 -48.34765625 25.84765625 -45.59765625 26.09765625 C-43.28515625 28.09765625 -43.28515625 28.09765625 -41.59765625 30.09765625 C-41.92765625 26.79765625 -42.25765625 23.49765625 -42.59765625 20.09765625 C-41.93765625 19.76765625 -41.27765625 19.43765625 -40.59765625 19.09765625 C-37.91863693 21.4164713 -36.93561222 23.41580093 -35.91015625 26.78515625 C-35.65878906 27.59339844 -35.40742187 28.40164062 -35.1484375 29.234375 C-34.96667969 29.84925781 -34.78492187 30.46414062 -34.59765625 31.09765625 C-33.93765625 29.44765625 -33.27765625 27.79765625 -32.59765625 26.09765625 C-31.27765625 26.09765625 -29.95765625 26.09765625 -28.59765625 26.09765625 C-28.59765625 30.38765625 -28.59765625 34.67765625 -28.59765625 39.09765625 C-25.62765625 38.60265625 -25.62765625 38.60265625 -22.59765625 38.09765625 C-18.45183125 39.64217929 -15.82046178 41.23699402 -13.59765625 45.09765625 C-13.23974571 46.42460347 -12.90260808 47.75754683 -12.59765625 49.09765625 C-12.59507813 48.48019531 -12.5925 47.86273438 -12.58984375 47.2265625 C-12.30361935 40.95824822 -10.96099184 37.3472904 -6.97265625 32.49609375 C-3.44234776 26.33811246 -4.50223532 18.04477637 -4.59765625 11.16015625 C-4.62303078 9.27609735 -4.64410945 7.39197393 -4.66015625 5.5078125 C-4.67175781 4.68418213 -4.68335938 3.86055176 -4.6953125 3.01196289 C-4.51734853 -0.47657574 -3.61074421 0.09801151 0 0 Z M0.40234375 4.09765625 C0.40234375 9.04765625 0.40234375 13.99765625 0.40234375 19.09765625 C3.04234375 19.09765625 5.68234375 19.09765625 8.40234375 19.09765625 C8.40234375 14.14765625 8.40234375 9.19765625 8.40234375 4.09765625 C5.76234375 4.09765625 3.12234375 4.09765625 0.40234375 4.09765625 Z M1.40234375 24.09765625 C1.24378906 24.66613281 1.08523437 25.23460938 0.921875 25.8203125 C-0.32935425 29.96112092 -1.61261953 33.43010729 -4.22265625 36.91015625 C-7.56712679 41.39878777 -7.723476 44.43698596 -7.6953125 49.95703125 C-7.69208984 51.07207031 -7.68886719 52.18710937 -7.68554688 53.3359375 C-7.67716797 54.49480469 -7.66878906 55.65367188 -7.66015625 56.84765625 C-7.65564453 58.02199219 -7.65113281 59.19632813 -7.64648438 60.40625 C-7.63470719 63.30343697 -7.61825951 66.20052079 -7.59765625 69.09765625 C-5.94765625 69.09765625 -4.29765625 69.09765625 -2.59765625 69.09765625 C-2.26765625 62.82765625 -1.93765625 56.55765625 -1.59765625 50.09765625 C4.01234375 50.09765625 9.62234375 50.09765625 15.40234375 50.09765625 C15.65410007 43.87137311 15.65410007 43.87137311 13.58984375 38.97265625 C13.22632812 38.30234375 12.8628125 37.63203125 12.48828125 36.94140625 C11.59856199 35.43080376 10.66287066 33.94736477 9.71484375 32.47265625 C8.17553947 29.6872485 7.76768295 27.2395734 7.40234375 24.09765625 C5.42234375 24.09765625 3.44234375 24.09765625 1.40234375 24.09765625 Z M22.40234375 35.09765625 C22.40234375 35.75765625 22.40234375 36.41765625 22.40234375 37.09765625 C30.65234375 37.09765625 38.90234375 37.09765625 47.40234375 37.09765625 C47.40234375 36.43765625 47.40234375 35.77765625 47.40234375 35.09765625 C39.15234375 35.09765625 30.90234375 35.09765625 22.40234375 35.09765625 Z M24.40234375 42.09765625 C20.69521416 48.66763293 20.69521416 48.66763293 20.01171875 55.03515625 C20.02460937 55.86660156 20.0375 56.69804688 20.05078125 57.5546875 C20.08429688 58.39386719 20.1178125 59.23304687 20.15234375 60.09765625 C20.17039062 60.96777344 20.1884375 61.83789062 20.20703125 62.734375 C20.25365939 64.85595532 20.32538298 66.9769596 20.40234375 69.09765625 C21.06234375 69.09765625 21.72234375 69.09765625 22.40234375 69.09765625 C22.73234375 64.47765625 23.06234375 59.85765625 23.40234375 55.09765625 C30.66234375 55.09765625 37.92234375 55.09765625 45.40234375 55.09765625 C45.89734375 62.02765625 45.89734375 62.02765625 46.40234375 69.09765625 C47.06234375 69.09765625 47.72234375 69.09765625 48.40234375 69.09765625 C48.51125086 66.09666037 48.5900793 63.09969247 48.65234375 60.09765625 C48.68585938 59.25847656 48.719375 58.41929688 48.75390625 57.5546875 C48.77324219 56.30751953 48.77324219 56.30751953 48.79296875 55.03515625 C48.82438965 53.90400391 48.82438965 53.90400391 48.85644531 52.75 C48.35135321 49.02946435 48.35135321 49.02946435 44.40234375 42.09765625 C37.80234375 42.09765625 31.20234375 42.09765625 24.40234375 42.09765625 Z M-32.59765625 44.84765625 C-33.62890625 45.1725 -34.66015625 45.49734375 -35.72265625 45.83203125 C-38.80897244 47.19068131 -40.49823028 48.47462048 -42.59765625 51.09765625 C-42.91217897 54.24288347 -43.01807446 56.25681984 -41.59765625 59.09765625 C-36.54233757 58.31991491 -31.58049341 57.23817231 -26.59765625 56.09765625 C-26.59765625 57.41765625 -26.59765625 58.73765625 -26.59765625 60.09765625 C-32.04265625 61.58265625 -32.04265625 61.58265625 -37.59765625 63.09765625 C-37.26765625 64.41765625 -36.93765625 65.73765625 -36.59765625 67.09765625 C-31.15265625 66.10765625 -31.15265625 66.10765625 -25.59765625 65.09765625 C-25.59765625 66.41765625 -25.59765625 67.73765625 -25.59765625 69.09765625 C-21.96765625 69.09765625 -18.33765625 69.09765625 -14.59765625 69.09765625 C-15.62146936 56.70349055 -15.62146936 56.70349055 -19.59765625 45.09765625 C-24.26027618 41.98924296 -27.5737097 43.21487362 -32.59765625 44.84765625 Z M2.40234375 54.09765625 C2.40234375 59.04765625 2.40234375 63.99765625 2.40234375 69.09765625 C6.69234375 69.09765625 10.98234375 69.09765625 15.40234375 69.09765625 C15.40234375 64.14765625 15.40234375 59.19765625 15.40234375 54.09765625 C11.11234375 54.09765625 6.82234375 54.09765625 2.40234375 54.09765625 Z M26.40234375 59.09765625 C26.40234375 62.39765625 26.40234375 65.69765625 26.40234375 69.09765625 C31.68234375 69.09765625 36.96234375 69.09765625 42.40234375 69.09765625 C42.40234375 65.79765625 42.40234375 62.49765625 42.40234375 59.09765625 C37.12234375 59.09765625 31.84234375 59.09765625 26.40234375 59.09765625 Z M-49.59765625 74.09765625 C-49.59765625 75.74765625 -49.59765625 77.39765625 -49.59765625 79.09765625 C-12.63765625 79.09765625 24.32234375 79.09765625 62.40234375 79.09765625 C62.40234375 77.44765625 62.40234375 75.79765625 62.40234375 74.09765625 C25.44234375 74.09765625 -11.51765625 74.09765625 -49.59765625 74.09765625 Z M-40.59765625 84.09765625 C-39.73022016 91.90458107 -38.44829243 99.26303132 -36.78515625 106.91015625 C-36.53701172 108.12380859 -36.28886719 109.33746094 -36.03320312 110.58789062 C-35.77990234 111.75255859 -35.52660156 112.91722656 -35.265625 114.1171875 C-34.92954224 115.69657104 -34.92954224 115.69657104 -34.58666992 117.30786133 C-33.40951191 120.62837097 -32.3705198 121.92904411 -29.59765625 124.09765625 C-26.32060573 124.70422374 -26.32060573 124.70422374 -22.59765625 124.61523438 C-21.90124023 124.62224365 -21.20482422 124.62925293 -20.48730469 124.63647461 C-18.19034693 124.65404821 -15.89462604 124.64243544 -13.59765625 124.62890625 C-11.99869552 124.63160138 -10.39973638 124.63548398 -8.80078125 124.64050293 C-5.45166399 124.64639707 -2.10297382 124.63783817 1.24609375 124.61914062 C5.53712966 124.5963506 9.82716486 124.60947421 14.11816406 124.63343048 C17.41934741 124.64789105 20.72029386 124.6432814 24.02148438 124.63291931 C25.60351683 124.63025271 27.18557086 124.63351947 28.76757812 124.64283752 C30.97974538 124.65300804 33.19029675 124.63749815 35.40234375 124.61523438 C36.66046875 124.612052 37.91859375 124.60886963 39.21484375 124.60559082 C42.98656744 124.00455902 44.13798604 123.11809912 46.40234375 120.09765625 C47.21655473 117.62674706 47.82147916 115.37809436 48.32421875 112.84765625 C48.47393127 112.1525293 48.6236438 111.45740234 48.77789307 110.74121094 C49.09051365 109.27686274 49.39602733 107.8109813 49.69482422 106.34375 C50.15144648 104.10206121 50.62835571 101.86547398 51.109375 99.62890625 C51.41134358 98.20207368 51.71216402 96.77499754 52.01171875 95.34765625 C52.15228699 94.68088867 52.29285522 94.01412109 52.43768311 93.32714844 C53.08343479 90.1426532 53.40234375 87.37088732 53.40234375 84.09765625 C22.38234375 84.09765625 -8.63765625 84.09765625 -40.59765625 84.09765625 Z " fill="#000000" transform="translate(57.59765625,-0.09765625)"/>
<path d="M0 0 C0.66 0.33 1.32 0.66 2 1 C1.60378931 10.35057223 -0.57593382 19.01404305 -3 28 C-4.32 27.67 -5.64 27.34 -7 27 C-6.69454898 20.6466187 -5.56855069 14.59936735 -4.0625 8.4375 C-3.89266602 7.72271484 -3.72283203 7.00792969 -3.54785156 6.27148438 C-3.09845058 4.4961365 -2.55639674 2.7447762 -2 1 C-1.34 0.67 -0.68 0.34 0 0 Z " fill="#000000" transform="translate(94,89)"/>
<path d="M0 0 C0.99 0.33 1.98 0.66 3 1 C3.99455909 3.98367726 4.19559632 6.2004192 4.31640625 9.32421875 C4.37924805 10.86625977 4.37924805 10.86625977 4.44335938 12.43945312 C4.48267578 13.51130859 4.52199219 14.58316406 4.5625 15.6875 C4.60568359 16.77095703 4.64886719 17.85441406 4.69335938 18.97070312 C4.79946838 21.64700791 4.90152361 24.32340526 5 27 C3.0625 27.5625 3.0625 27.5625 1 28 C-3.19912209 23.80087791 -1.12059562 9.32750215 -1.1328125 3.73828125 C-1 1 -1 1 0 0 Z " fill="#000000" transform="translate(53,89)"/>
<path d="M0 0 C1.98 0.495 1.98 0.495 4 1 C5.26305335 6.07476794 6.27036084 10.72796354 6 16 C4.68 16 3.36 16 2 16 C1.46530198 14.27507022 0.94780825 12.544802 0.4375 10.8125 C0.14746094 9.84957031 -0.14257812 8.88664062 -0.44140625 7.89453125 C-1.02461026 4.87247412 -0.81178385 2.94070045 0 0 Z " fill="#000000" transform="translate(35,101)"/>
<path d="M0 0 C1.32 0 2.64 0 4 0 C4 3.96 4 7.92 4 12 C2.02 12.99 2.02 12.99 0 14 C-1 13 -1 13 -1.1328125 10.56640625 C-1.13023438 9.57511719 -1.12765625 8.58382812 -1.125 7.5625 C-1.12757812 6.57378906 -1.13015625 5.58507812 -1.1328125 4.56640625 C-1 2 -1 2 0 0 Z " fill="#000000" transform="translate(74,90)"/>
<path d="M0 0 C2.0625 0.4375 2.0625 0.4375 4 1 C4.125 6.75 4.125 6.75 3 9 C1.68 8.67 0.36 8.34 -1 8 C-1.04241723 5.66705225 -1.04092937 3.33297433 -1 1 C-0.67 0.67 -0.34 0.34 0 0 Z " fill="#000000" transform="translate(73,108)"/>
<path d="M0 0 C1.32 0 2.64 0 4 0 C4.33 1.98 4.66 3.96 5 6 C3.0625 6.5625 3.0625 6.5625 1 7 C0 6 0 6 -0.0625 2.9375 C-0.041875 1.968125 -0.02125 0.99875 0 0 Z " fill="#000000" transform="translate(32,90)"/>
</svg>
