<?xml version="1.0" encoding="UTF-8"?>
<svg version="1.1" xmlns="http://www.w3.org/2000/svg" width="128" height="128">
<path d="M0 0 C0.74572266 -0.00386719 1.49144531 -0.00773437 2.25976562 -0.01171875 C7.81086499 -0.00163501 7.81086499 -0.00163501 8.9375 1.125 C9.0625 4.125 9.0625 4.125 8.9375 7.125 C7.21882657 8.84367343 4.84536781 8.45420599 2.5 8.625 C-1.42684915 8.83919183 -1.42684915 8.83919183 -5.0625 10.125 C-5.0625 11.445 -5.0625 12.765 -5.0625 14.125 C-2.21773215 15.54738392 0.22622888 15.28924558 3.40673828 15.33032227 C4.40204056 15.34517166 4.40204056 15.34517166 5.41744995 15.36032104 C7.61420097 15.39194916 9.81097363 15.41669854 12.0078125 15.44140625 C13.52953661 15.46197466 15.051255 15.4829711 16.57296753 15.50437927 C20.5809465 15.55961171 24.58897713 15.60901578 28.5970459 15.65722656 C32.68583787 15.70743305 36.77455468 15.76312356 40.86328125 15.81835938 C48.88795732 15.92595528 56.9126962 16.02739704 64.9375 16.125 C64.33566251 14.10454558 63.66443904 12.10388961 62.9375 10.125 C59.64379079 8.47814539 56.00747968 8.67105834 52.37109375 8.40625 C49.9375 8.125 49.9375 8.125 48.9375 7.125 C48.8125 4.125 48.8125 4.125 48.9375 1.125 C50.97070627 -0.90820627 54.85137796 -0.19595245 57.625 -0.25 C58.68750977 -0.30607422 58.68750977 -0.30607422 59.77148438 -0.36328125 C63.79782532 -0.43020104 66.21860105 -0.05943732 69.39453125 2.5234375 C72.58630952 5.78875905 72.97084013 7.06963701 73.125 11.4375 C73.38213637 14.14832748 73.54177498 15.65103708 75.30078125 17.7578125 C76.79442076 18.94844639 78.36347896 20.04286054 79.9375 21.125 C81.14825308 23.54650616 81.09016843 25.14041421 81.13037109 27.84667969 C81.14643402 28.82820007 81.16249695 29.80972046 81.17904663 30.82098389 C81.22349233 35.31684713 81.26456981 39.81256213 81.28759766 44.30859375 C81.30414991 46.67913638 81.33142998 49.04962924 81.36962891 51.41992188 C81.42442838 54.83750305 81.44627824 58.25391347 81.4609375 61.671875 C81.48360687 62.72832214 81.50627625 63.78476929 81.52963257 64.87322998 C81.50606605 73.09353125 81.50606605 73.09353125 78.52978516 76.77832031 C74.46798294 80.455288 71.54048051 80.28798811 66.27832031 80.31787109 C65.48787323 80.32604858 64.69742615 80.33422607 63.88302612 80.34265137 C61.26056681 80.36751407 58.63816171 80.38402463 56.015625 80.3984375 C54.67260441 80.40642302 54.67260441 80.40642302 53.30245209 80.41456985 C48.56232051 80.44130677 43.82221531 80.46067889 39.08203125 80.47509766 C34.18807135 80.49173619 29.29478609 80.53650549 24.40108109 80.5874691 C20.63664995 80.62114421 16.87237878 80.63267542 13.10781097 80.63832474 C11.30409344 80.64503777 9.50038645 80.66026127 7.69681549 80.68421555 C5.16873947 80.71587327 2.64248041 80.7159034 0.11425781 80.70849609 C-0.99881241 80.7331041 -0.99881241 80.7331041 -2.1343689 80.75820923 C-7.87117244 80.68957664 -10.18855435 79.05524357 -14.0625 75.125 C-15.45226018 72.34547964 -15.22058931 70.04466628 -15.25537109 66.93457031 C-15.27143402 65.6327179 -15.28749695 64.33086548 -15.30404663 62.98956299 C-15.31553465 61.56075696 -15.32614309 60.13194364 -15.3359375 58.703125 C-15.34126118 57.98429893 -15.34658485 57.26547287 -15.35206985 56.5248642 C-15.37880052 52.7184099 -15.39817362 48.91198835 -15.41259766 45.10546875 C-15.42592665 41.95868798 -15.45375836 38.81255728 -15.49462891 35.66601562 C-15.54401223 31.86404945 -15.5687257 28.06267207 -15.57582474 24.26039886 C-15.58252776 22.81392746 -15.59772542 21.36746871 -15.62171555 19.92118073 C-15.82092776 7.18208053 -15.82092776 7.18208053 -12.65478516 3.25292969 C-8.43572019 -0.2103751 -5.27357081 -0.02749038 0 0 Z M-7.0625 24.125 C-7.16138089 30.31798642 -7.23397486 36.51051332 -7.28222656 42.70410156 C-7.30234126 44.81095382 -7.32963667 46.91775025 -7.36425781 49.02441406 C-7.41278168 52.05287447 -7.43547016 55.08059678 -7.453125 58.109375 C-7.47377014 59.05117615 -7.49441528 59.99297729 -7.51568604 60.96331787 C-7.51598816 61.84392883 -7.51629028 62.72453979 -7.51660156 63.63183594 C-7.52548401 64.40460876 -7.53436646 65.17738159 -7.54351807 65.97357178 C-6.83994651 69.12040515 -5.65711403 70.23861154 -3.0625 72.125 C0.21455052 72.73156749 0.21455052 72.73156749 3.9375 72.64257812 C4.98212402 72.65309204 4.98212402 72.65309204 6.04785156 72.66381836 C8.34480932 72.68139196 10.64053021 72.66977919 12.9375 72.65625 C14.53646073 72.65894513 16.13541987 72.66282773 17.734375 72.66784668 C21.08349226 72.67374082 24.43218243 72.66518192 27.78125 72.64648438 C32.07228591 72.62369435 36.36232111 72.63681796 40.65332031 72.66077423 C43.95450366 72.6752348 47.25545011 72.67062515 50.55664062 72.66026306 C52.13867308 72.65759646 53.72072711 72.66086322 55.30273438 72.67018127 C57.51490163 72.68035179 59.725453 72.6648419 61.9375 72.64257812 C63.195625 72.63939575 64.45375 72.63621338 65.75 72.63293457 C69.49232051 72.03658823 70.68153727 71.11241526 72.9375 68.125 C73.41550058 65.9996151 73.41550058 65.9996151 73.1875 63.875 C73.105 62.6375 73.0225 61.4 72.9375 60.125 C71.18373047 60.08632812 71.18373047 60.08632812 69.39453125 60.046875 C67.84631774 59.99057633 66.2981421 59.93322938 64.75 59.875 C63.98107422 59.86082031 63.21214844 59.84664062 62.41992188 59.83203125 C57.3776215 59.61562351 54.5984871 58.90683522 50.9375 55.125 C49.08887312 51.42774625 49.46162906 47.16038558 49.9375 43.125 C51.73396854 40.19076805 52.8816071 38.65294645 55.9375 37.125 C58.81660588 36.89225791 61.67896495 36.70527243 64.5625 36.5625 C65.36429687 36.51931641 66.16609375 36.47613281 66.9921875 36.43164062 C68.9737511 36.32548543 70.95560271 36.22473145 72.9375 36.125 C73.02 34.8875 73.1025 33.65 73.1875 32.375 C73.23390625 31.67890625 73.2803125 30.9828125 73.328125 30.265625 C72.74980343 27.09642278 71.4657343 26.0881018 68.9375 24.125 C66.31631671 23.75045019 64.12180138 23.61688804 61.50683594 23.67089844 C60.76498047 23.67031433 60.023125 23.66973022 59.25878906 23.66912842 C56.81267098 23.67190975 54.36777953 23.70300214 51.921875 23.734375 C50.22365993 23.74183726 48.52543624 23.74753027 46.82720947 23.75152588 C42.3619399 23.76678349 37.89719247 23.80606611 33.43212891 23.8503418 C28.87409529 23.89129193 24.31597713 23.90953633 19.7578125 23.9296875 C10.81747919 23.97256047 1.87753305 24.04081315 -7.0625 24.125 Z M57.9375 46.125 C58.28194881 48.59766765 58.28194881 48.59766765 58.9375 51.125 C61.70202033 52.50726016 63.9836363 52.22025387 67.0625 52.1875 C68.15820312 52.17847656 69.25390625 52.16945313 70.3828125 52.16015625 C71.22585937 52.14855469 72.06890625 52.13695312 72.9375 52.125 C72.9375 49.485 72.9375 46.845 72.9375 44.125 C71.00030622 44.07093878 69.06268079 44.03217975 67.125 44 C66.04605469 43.97679687 64.96710938 43.95359375 63.85546875 43.9296875 C60.74347132 43.89476283 60.74347132 43.89476283 57.9375 46.125 Z " fill="#000000" transform="translate(31.0625,39.875)"/>
<path d="M0 0 C3 0.125 3 0.125 4 1.125 C4.15740605 2.83063778 4.25093392 4.54227244 4.31640625 6.25390625 C4.35830078 7.28837891 4.40019531 8.32285156 4.44335938 9.38867188 C4.48267578 10.47728516 4.52199219 11.56589844 4.5625 12.6875 C4.60568359 13.77998047 4.64886719 14.87246094 4.69335938 15.99804688 C4.79982068 18.70689564 4.90183516 21.41583992 5 24.125 C7.97 21.65 7.97 21.65 11 19.125 C13.4375 19.875 13.4375 19.875 16 21.125 C16.84765625 22.96484375 16.84765625 22.96484375 17 25.125 C15.8125 27.01953125 15.8125 27.01953125 14 28.9375 C13.35160156 29.62457031 12.70320313 30.31164062 12.03515625 31.01953125 C11.36355469 31.71433594 10.69195312 32.40914062 10 33.125 C9.10087891 34.15173828 9.10087891 34.15173828 8.18359375 35.19921875 C7.60738281 35.83472656 7.03117187 36.47023437 6.4375 37.125 C5.92058594 37.7025 5.40367188 38.28 4.87109375 38.875 C1.99019004 40.79961208 0.40239157 40.73759605 -3 40.125 C-5.58696293 38.33411219 -7.66449684 36.16261111 -9.8125 33.875 C-10.39708984 33.28847656 -10.98167969 32.70195313 -11.58398438 32.09765625 C-16.59077217 26.93422503 -16.59077217 26.93422503 -17 23.125 C-15.0625 20.875 -15.0625 20.875 -13 19.125 C-9.57440916 20.32858597 -7.46741391 21.48392646 -5 24.125 C-4.97494385 23.43349854 -4.9498877 22.74199707 -4.92407227 22.02954102 C-4.80847839 18.91532134 -4.68558758 15.80143211 -4.5625 12.6875 C-4.52318359 11.59888672 -4.48386719 10.51027344 -4.44335938 9.38867188 C-4.40146484 8.35419922 -4.35957031 7.31972656 -4.31640625 6.25390625 C-4.26141968 4.81640015 -4.26141968 4.81640015 -4.20532227 3.34985352 C-3.88838056 -0.08449815 -3.5318076 0.14715865 0 0 Z " fill="#000000" transform="translate(60,7.875)"/>
</svg>
