<?xml version="1.0" standalone="no"?>
<!DOCTYPE svg PUBLIC "-//W3C//DTD SVG 20010904//EN"
 "http://www.w3.org/TR/2001/REC-SVG-20010904/DTD/svg10.dtd">
<svg version="1.0" xmlns="http://www.w3.org/2000/svg"
 width="128.000000pt" height="128.000000pt" viewBox="0 0 128.000000 128.000000"
 preserveAspectRatio="xMidYMid meet">

<g transform="translate(0.000000,128.000000) scale(0.100000,-0.100000)"
fill="#000000" stroke="none">
<path d="M95 1185 c-25 -24 -25 -25 -25 -223 l0 -199 26 -27 27 -26 197 0 197
0 27 26 26 27 0 197 0 197 -26 27 -27 26 -199 0 c-198 0 -199 0 -223 -25z
m395 -225 l0 -170 -170 0 -170 0 0 170 0 170 170 0 170 0 0 -170z"/>
<path d="M735 1185 c-25 -24 -25 -25 -25 -223 l0 -199 26 -27 27 -26 197 0
197 0 27 26 26 27 0 197 0 197 -26 27 -27 26 -199 0 c-198 0 -199 0 -223 -25z
m395 -225 l0 -170 -170 0 -170 0 0 170 0 170 170 0 170 0 0 -170z"/>
<path d="M803 477 c-109 -109 -123 -127 -123 -157 0 -30 14 -48 123 -157 163
-163 151 -163 314 0 109 109 123 127 123 157 0 30 -14 48 -123 157 -109 109
-127 123 -157 123 -30 0 -48 -14 -157 -123z m262 -57 l100 -100 -103 -103
-102 -102 -102 102 -103 103 100 100 c55 55 102 100 105 100 3 0 50 -45 105
-100z"/>
<path d="M95 545 c-25 -24 -25 -25 -25 -223 l0 -199 26 -27 27 -26 197 0 197
0 27 26 26 27 0 197 0 197 -26 27 -27 26 -199 0 c-198 0 -199 0 -223 -25z
m395 -225 l0 -170 -170 0 -170 0 0 170 0 170 170 0 170 0 0 -170z"/>
</g>
</svg>
