<?xml version="1.0" encoding="UTF-8"?>
<svg version="1.1" xmlns="http://www.w3.org/2000/svg" width="128" height="128">
<path d="M0 0 C10.75472637 7.84380367 17.47126945 16.46870006 22.41015625 28.7578125 C24.32243505 26.39022922 25.55215757 24.41295215 26.72265625 21.5703125 C28.41015625 18.7578125 28.41015625 18.7578125 31.47265625 17.8203125 C34.41015625 17.7578125 34.41015625 17.7578125 36.41015625 18.7578125 C36.70730884 23.98941241 36.12923459 27.13252892 33.56640625 31.69140625 C32.97988281 32.75166016 32.39335938 33.81191406 31.7890625 34.90429688 C31.16902344 35.99033203 30.54898438 37.07636719 29.91015625 38.1953125 C29.29011719 39.30841797 28.67007813 40.42152344 28.03125 41.56835938 C26.50390106 44.30583863 24.96335709 47.03494466 23.41015625 49.7578125 C15.89371553 50.83466647 10.44067366 47.07321969 4.03515625 43.5078125 C2.93042969 42.92128906 1.82570313 42.33476563 0.6875 41.73046875 C-7.33560015 37.33898097 -7.33560015 37.33898097 -8.47119141 34.74316406 C-8.58984375 32.7578125 -8.58984375 32.7578125 -7.58984375 29.7578125 C-3.67290723 28.59249338 -1.31202689 28.61190474 2.27734375 30.41015625 C3.62258778 31.15531593 4.95848622 31.91756505 6.28515625 32.6953125 C6.97351563 33.08138672 7.661875 33.46746094 8.37109375 33.86523438 C10.05912152 34.81475 11.73583966 35.78432308 13.41015625 36.7578125 C12.01872406 26.63697419 6.900056 18.60384367 -0.58984375 11.7578125 C-3.77132261 9.38491547 -7.0324298 7.50989213 -10.58984375 5.7578125 C-11.4096875 5.34402344 -12.22953125 4.93023437 -13.07421875 4.50390625 C-23.34230647 0.03884386 -35.18810229 0.12735302 -45.65234375 3.8828125 C-57.8439414 9.31140946 -66.44448764 17.9790607 -71.6796875 30.27734375 C-75.36831847 40.33005048 -75.12671832 53.54688372 -70.859375 63.36328125 C-63.79707458 76.68386635 -54.17908324 84.79401648 -39.828125 89.3125 C-29.2279144 91.42144242 -17.00214944 90.36714545 -7.73046875 84.6015625 C-7.2303125 84.240625 -6.73015625 83.8796875 -6.21484375 83.5078125 C-3.05716072 81.40269048 -1.31360506 81.16539593 2.41015625 81.7578125 C4.41015625 84.7578125 4.41015625 84.7578125 4.34765625 86.6953125 C1.70055046 92.51894524 -5.95481204 95.44075051 -11.58984375 97.7578125 C-27.27723989 102.46403134 -43.01780859 100.32166529 -57.46484375 92.8828125 C-70.60957396 85.21663844 -78.91029292 73.53016326 -83.13183594 58.87646484 C-86.14314597 44.94674817 -83.69192286 29.71730009 -76.77734375 17.4453125 C-75.74398882 15.86338643 -74.68231814 14.29950385 -73.58984375 12.7578125 C-73.11160156 12.07203125 -72.63335937 11.38625 -72.140625 10.6796875 C-55.18862929 -11.01203497 -22.51218586 -14.56886175 0 0 Z " fill="#000000" transform="translate(87.58984375,18.2421875)"/>
</svg>
