<?xml version="1.0" encoding="UTF-8"?>
<svg version="1.1" xmlns="http://www.w3.org/2000/svg" width="128" height="128">
<path d="M0 0 C5.42088461 3.28044949 9.76845601 8.29838949 11.5 14.4375 C12.73575253 19.75123587 12.59643123 25.01592203 12.5 30.4375 C13.52480469 30.37949219 14.54960938 30.32148437 15.60546875 30.26171875 C16.96610011 30.21480043 18.32678096 30.16930248 19.6875 30.125 C20.36103516 30.08310547 21.03457031 30.04121094 21.72851562 29.99804688 C25.71836318 29.90073352 27.2989502 30.27295591 30.42578125 32.83203125 C33.43636826 36.61369139 33.70914161 38.79138431 34.07250977 43.5769043 C34.17253799 44.86972824 34.27256622 46.16255219 34.37562561 47.49455261 C34.48114054 48.91692245 34.58639381 50.33931172 34.69140625 51.76171875 C34.80187007 53.22509813 34.91254535 54.68846156 35.02342224 56.15180969 C35.25568193 59.2309655 35.48472716 62.31034049 35.71166992 65.38989258 C35.99974966 69.29445933 36.2965655 73.19830181 36.59605503 77.10200787 C36.82740632 80.13305049 37.0534299 83.16447416 37.27802849 86.19602394 C37.38514546 87.63233072 37.49393864 89.06851369 37.60458565 90.50455284 C37.96061281 95.14643302 38.25404553 99.78818002 38.5 104.4375 C38.54113293 105.12111729 38.58226585 105.80473457 38.62464523 106.50906754 C38.73805744 108.5487165 38.81362147 110.58646958 38.87866211 112.62817383 C38.9513456 114.41219353 38.9513456 114.41219353 39.02549744 116.23225403 C38.33982343 120.41448914 36.75738641 121.82443711 33.5 124.4375 C29.80821607 125.66809464 26.38880056 125.59301598 22.54370117 125.59863281 C21.73360092 125.60359772 20.92350067 125.60856262 20.08885193 125.61367798 C17.40688224 125.62829146 14.72497172 125.63510046 12.04296875 125.640625 C10.17832945 125.64637739 8.31369017 125.65213511 6.4490509 125.65789795 C2.53756434 125.6684058 -1.37390169 125.67424979 -5.28540039 125.67773438 C-10.2923622 125.68321678 -15.29905176 125.70724031 -20.30592823 125.73570633 C-24.15871468 125.75435003 -28.01143579 125.75953925 -31.86426353 125.76107025 C-33.70981013 125.7640937 -35.55535566 125.77211185 -37.40085793 125.78525543 C-39.9859538 125.80235119 -42.57038778 125.8004271 -45.15551758 125.79394531 C-45.91469482 125.8031601 -46.67387207 125.81237488 -47.45605469 125.8218689 C-52.20969155 125.78461875 -55.48674173 125.00444605 -59.5 122.4375 C-64.87087904 114.38118144 -61.17884636 99.72560994 -60.51171875 90.25 C-60.40678751 88.73356237 -60.3018735 87.21712354 -60.19697571 85.70068359 C-59.97767568 82.55068639 -59.75425452 79.40101022 -59.52856445 76.25146484 C-59.24080238 72.22310308 -58.9696279 68.19379961 -58.7021513 64.16404724 C-58.49220038 61.0441246 -58.27049182 57.92511762 -58.04554176 54.8062439 C-57.94035529 53.32024074 -57.83950525 51.83392375 -57.74316978 50.34732056 C-57.6077113 48.27471541 -57.45566551 46.20395098 -57.29956055 44.1328125 C-57.21739792 42.95734863 -57.13523529 41.78188477 -57.05058289 40.57080078 C-56.45481682 37.18036797 -55.54257104 35.18983293 -53.5 32.4375 C-49.81912647 29.98358431 -47.05644412 30.20947241 -42.8125 30.3125 C-42.11060547 30.32152344 -41.40871094 30.33054687 -40.68554688 30.33984375 C-38.95688475 30.36336296 -37.22839855 30.39923287 -35.5 30.4375 C-35.52320312 29.82003906 -35.54640625 29.20257812 -35.5703125 28.56640625 C-35.78524455 18.47995236 -34.68395297 10.94413644 -27.5 3.4375 C-20.15962482 -2.68242725 -8.77276711 -3.98607282 0 0 Z M-23.5 9.4375 C-28.76752697 16.21462311 -28.5 21.97018337 -28.5 30.4375 C-17.28 30.4375 -6.06 30.4375 5.5 30.4375 C5.53295235 18.97058604 5.53295235 18.97058604 0.0625 9.5 C-4.61950692 5.73155541 -8.0197308 4.98005953 -13.96484375 5.12890625 C-18.12997123 5.63590944 -20.16338829 6.83494287 -23.5 9.4375 Z M-49.5 38.4375 C-49.74260316 40.53371737 -49.92015801 42.63748503 -50.07250977 44.7421875 C-50.12142365 45.40087326 -50.17033752 46.05955902 -50.22073364 46.73820496 C-50.38220198 48.92932923 -50.53694003 51.12087178 -50.69140625 53.3125 C-50.8017687 54.83652961 -50.91244502 56.36053652 -51.02342224 57.88452148 C-51.25575534 61.08899083 -51.48487861 64.29366895 -51.71166992 67.49853516 C-52.00110616 71.58631671 -52.29741025 75.67356321 -52.59605503 79.76068115 C-52.82587067 82.91427179 -53.05244425 86.06808896 -53.27802849 89.22198486 C-53.38599438 90.72737911 -53.49483103 92.23271118 -53.60458565 93.73797607 C-54.52596887 105.07827391 -54.52596887 105.07827391 -54.5 116.4375 C-51.99388308 118.94361692 -50.48863736 118.67665877 -47.06954956 118.69744873 C-46.31312164 118.69182922 -45.55669373 118.68620972 -44.77734375 118.68041992 C-43.58203537 118.68326744 -43.58203537 118.68326744 -42.36257935 118.68617249 C-39.72078708 118.68988603 -37.07926796 118.67916785 -34.4375 118.66796875 C-32.60668978 118.66677715 -30.77587895 118.66632375 -28.94506836 118.6665802 C-25.10494163 118.66501433 -21.264908 118.65671683 -17.42480469 118.64331055 C-12.49486279 118.62632057 -7.56502329 118.62249616 -2.63505554 118.62325573 C1.14637231 118.62298419 4.92777763 118.61750558 8.709198 118.61025429 C10.52733184 118.60706522 12.34546825 118.60509966 14.16360474 118.60436058 C16.70156224 118.60219954 19.23940976 118.59346041 21.77734375 118.58276367 C22.53377167 118.58321686 23.29019958 118.58367004 24.06954956 118.58413696 C27.9118161 118.62897683 27.9118161 118.62897683 31.5 117.4375 C31.66521286 108.20955913 31.15315831 99.0952495 30.44140625 89.8984375 C30.3314285 88.44066382 30.22172808 86.98286919 30.11228943 85.52505493 C29.88400611 82.49775588 29.6525412 79.47072241 29.41870117 76.44384766 C29.11903065 72.56167761 28.82731757 68.67895639 28.53788853 64.79601097 C28.31362323 61.79843642 28.08533123 58.80117922 27.85578728 55.80400467 C27.74651819 54.37113334 27.63848497 52.9381672 27.53170967 51.50510788 C27.38273095 49.51400011 27.22776989 47.52334266 27.07250977 45.53271484 C26.94260399 43.834944 26.94260399 43.834944 26.81007385 42.10287476 C26.65694041 39.46732876 26.65694041 39.46732876 25.5 37.4375 C21.54 37.4375 17.58 37.4375 13.5 37.4375 C13.5 40.7375 13.5 44.0375 13.5 47.4375 C11.85 47.4375 10.2 47.4375 8.5 47.4375 C6.09629915 45.03379915 6.875395 40.81605504 6.5 37.4375 C-5.38 37.4375 -17.26 37.4375 -29.5 37.4375 C-29.83 40.4075 -30.16 43.3775 -30.5 46.4375 C-34.5 47.4375 -34.5 47.4375 -36.5 47.4375 C-36.5 44.1375 -36.5 40.8375 -36.5 37.4375 C-38.47909398 37.41063447 -40.45828971 37.39116625 -42.4375 37.375 C-44.09072266 37.35759766 -44.09072266 37.35759766 -45.77734375 37.33984375 C-48.41447634 37.12487429 -48.41447634 37.12487429 -49.5 38.4375 Z " fill="#000000" transform="translate(75.5,2.5625)"/>
</svg>
