<?xml version="1.0" encoding="UTF-8"?>
<svg version="1.1" xmlns="http://www.w3.org/2000/svg" width="128" height="128">
<path d="M0 0 C0.9907251 -0.00478363 1.9814502 -0.00956726 3.00219727 -0.01449585 C5.08644204 -0.01788203 7.17074085 -0.00876993 9.25488281 0.01220703 C12.42894928 0.03899035 15.59947986 0.01241475 18.7734375 -0.01953125 C20.8072994 -0.01622693 22.84115912 -0.00982022 24.875 0 C25.81480713 -0.01012115 26.75461426 -0.02024231 27.72290039 -0.03067017 C34.1566595 0.08268696 38.50301564 1.44931408 43.4375 5.6640625 C45.44726562 8.03588867 45.44726562 8.03588867 46.84375 10.45703125 C47.6171875 11.7728418 47.6171875 11.7728418 48.40625 13.11523438 C48.9115625 14.01822266 49.416875 14.92121094 49.9375 15.8515625 C50.47375 16.76615234 51.01 17.68074219 51.5625 18.62304688 C55.4375 25.32027264 55.4375 25.32027264 55.4375 27.6640625 C56.84902344 27.91929688 56.84902344 27.91929688 58.2890625 28.1796875 C67.89905246 30.0499547 73.60517002 31.45559808 79.4375 39.6640625 C81.12210589 43.03327427 80.74842974 46.7750487 80.8125 50.4765625 C80.86857422 51.68795898 80.86857422 51.68795898 80.92578125 52.92382812 C80.98857979 57.1836624 80.80802452 59.13241081 78.30859375 62.71875 C74.90597923 65.02419494 73.18686636 65.19974197 69.125 64.9765625 C68.05636719 64.93144531 66.98773438 64.88632813 65.88671875 64.83984375 C65.07847656 64.78183594 64.27023438 64.72382812 63.4375 64.6640625 C63.13714844 65.28925781 62.83679688 65.91445312 62.52734375 66.55859375 C60.72136313 70.04756706 59.17652417 71.41772111 55.4375 72.6640625 C49.7689846 73.16366047 45.03159098 73.42286421 40.4375 69.6640625 C38.625 68.1015625 38.625 68.1015625 37.4375 66.6640625 C37.4375 66.0040625 37.4375 65.3440625 37.4375 64.6640625 C23.5775 64.6640625 9.7175 64.6640625 -4.5625 64.6640625 C-5.2225 65.9840625 -5.8825 67.3040625 -6.5625 68.6640625 C-9.01245903 71.54010136 -11.03634868 72.52955425 -14.8671875 72.8671875 C-21.17236282 72.9821755 -24.52246329 72.2847838 -29.375 68.1015625 C-30.5625 66.6640625 -30.5625 66.6640625 -30.5625 64.6640625 C-31.37074219 64.72207031 -32.17898437 64.78007813 -33.01171875 64.83984375 C-34.61466797 64.90751953 -34.61466797 64.90751953 -36.25 64.9765625 C-37.30574219 65.03457031 -38.36148438 65.09257813 -39.44921875 65.15234375 C-42.5625 64.6640625 -42.5625 64.6640625 -45.4140625 62.89453125 C-48.67966959 57.98424568 -48.32917928 53.43382223 -48.25 47.6640625 C-48.29157227 46.04371094 -48.29157227 46.04371094 -48.33398438 44.390625 C-48.31854886 39.38951797 -48.30278844 36.60168147 -45.14453125 32.6015625 C-42.42324597 30.78520126 -39.7719547 30.22414308 -36.6015625 29.53125 C-32.06525935 28.3203237 -30.44711514 26.7355263 -28.0234375 22.734375 C-26.96312364 20.76936548 -25.93502323 18.7866799 -24.9375 16.7890625 C-23.92245755 14.80277385 -22.8889175 12.82581515 -21.8359375 10.859375 C-21.17730713 9.54477295 -21.17730713 9.54477295 -20.50537109 8.20361328 C-15.04470445 1.06590853 -8.58919696 -0.09250046 0 0 Z M-9.5625 5.6640625 C-9.5625 5.9940625 -9.5625 6.3240625 -9.5625 6.6640625 C-2.9625 6.6640625 3.6375 6.6640625 10.4375 6.6640625 C10.4375 14.5840625 10.4375 22.5040625 10.4375 30.6640625 C-0.7825 30.6640625 -12.0025 30.6640625 -23.5625 30.6640625 C-23.8925 29.3440625 -24.2225 28.0240625 -24.5625 26.6640625 C-25.18125 27.5921875 -25.8 28.5203125 -26.4375 29.4765625 C-29.87523353 33.69152274 -34.43309953 34.5286224 -39.5625 35.6640625 C-38.2425 35.9940625 -36.9225 36.3240625 -35.5625 36.6640625 C-36.2225 40.2940625 -36.8825 43.9240625 -37.5625 47.6640625 C-40.5325 48.1590625 -40.5325 48.1590625 -43.5625 48.6640625 C-43.49160718 51.73823309 -43.28468756 54.6691082 -42.5625 57.6640625 C-39.73157118 60.33322396 -38.11926374 60.63254757 -34.25 60.8515625 C-33.363125 60.7896875 -32.47625 60.7278125 -31.5625 60.6640625 C-31.48773438 60.00019531 -31.41296875 59.33632812 -31.3359375 58.65234375 C-30.12657741 50.53066077 -30.12657741 50.53066077 -26.9375 47.6015625 C-23.00616499 45.344685 -20.08608933 44.36657307 -15.5625 44.6640625 C-10.41708319 46.20768754 -7.27355637 47.97184956 -4.5625 52.6640625 C-4.0675 56.6240625 -4.0675 56.6240625 -3.5625 60.6640625 C9.6375 60.6640625 22.8375 60.6640625 36.4375 60.6640625 C37.0975 57.3640625 37.7575 54.0640625 38.4375 50.6640625 C41.40515327 47.20180035 43.94488855 45.49847184 48.375 44.6640625 C52.66699226 44.38504197 55.69772851 45.50650203 59.4375 47.6640625 C63.74247599 51.62917196 64.05824135 55.06999739 64.4375 60.6640625 C67.51167059 60.59316968 70.4425457 60.38625006 73.4375 59.6640625 C76.10666146 56.83313368 76.40598507 55.22082624 76.625 51.3515625 C76.5321875 50.02125 76.5321875 50.02125 76.4375 48.6640625 C75.344375 48.5196875 74.25125 48.3753125 73.125 48.2265625 C69.4375 47.6640625 69.4375 47.6640625 66.4375 46.6640625 C65.7775 43.3640625 65.1175 40.0640625 64.4375 36.6640625 C65.7575 36.3340625 67.0775 36.0040625 68.4375 35.6640625 C67.41269531 35.43332031 66.38789062 35.20257813 65.33203125 34.96484375 C63.97112854 34.63634999 62.61046353 34.30687039 61.25 33.9765625 C60.57646484 33.82767578 59.90292969 33.67878906 59.20898438 33.52539062 C54.35319055 32.31736387 51.77293828 30.56943975 48.4375 26.6640625 C48.4375 27.9840625 48.4375 29.3040625 48.4375 30.6640625 C37.2175 30.6640625 25.9975 30.6640625 14.4375 30.6640625 C14.4375 22.7440625 14.4375 14.8240625 14.4375 6.6640625 C20.7075 6.6640625 26.9775 6.6640625 33.4375 6.6640625 C29.22210867 4.55636684 26.33623205 4.38736412 21.78515625 4.43359375 C21.04800888 4.43405197 20.31086151 4.43451019 19.55137634 4.4349823 C17.99557888 4.43799703 16.43978423 4.44586002 14.8840332 4.45825195 C12.51177177 4.47647209 10.13990216 4.47876169 7.76757812 4.47851562 C6.25260082 4.48343292 4.73762614 4.48926216 3.22265625 4.49609375 C2.5173024 4.49720657 1.81194855 4.4983194 1.08522034 4.49946594 C-2.58500464 4.53454969 -5.99245149 4.79611691 -9.5625 5.6640625 Z M-15.5625 10.6640625 C-14.5625 12.6640625 -14.5625 12.6640625 -14.5625 12.6640625 Z M-9.5625 13.6640625 C-11.6429824 16.27595282 -11.6429824 16.27595282 -13.375 19.2265625 C-14.28185547 20.68255859 -14.28185547 20.68255859 -15.20703125 22.16796875 C-16.72157109 24.48359439 -16.72157109 24.48359439 -16.5625 26.6640625 C-8.9725 26.6640625 -1.3825 26.6640625 6.4375 26.6640625 C6.4375 21.3840625 6.4375 16.1040625 6.4375 10.6640625 C-2.13324372 10.04650466 -2.13324372 10.04650466 -9.5625 13.6640625 Z M18.4375 10.6640625 C18.4375 15.9440625 18.4375 21.2240625 18.4375 26.6640625 C26.0275 26.6640625 33.6175 26.6640625 41.4375 26.6640625 C40.7775 24.0240625 40.1175 21.3840625 39.4375 18.6640625 C41.9125 19.1590625 41.9125 19.1590625 44.4375 19.6640625 C43.83566251 17.64360808 43.16443904 15.64295211 42.4375 13.6640625 C41.7775 13.3340625 41.1175 13.0040625 40.4375 12.6640625 C40.4375 13.9840625 40.4375 15.3040625 40.4375 16.6640625 C38.7875 16.6640625 37.1375 16.6640625 35.4375 16.6640625 C35.19 16.0453125 34.9425 15.4265625 34.6875 14.7890625 C33.16077832 12.19363564 32.22635241 11.73375932 29.4375 10.6640625 C26.61664272 10.42333056 26.61664272 10.42333056 23.6875 10.5390625 C21.08875 10.6009375 21.08875 10.6009375 18.4375 10.6640625 Z M39.4375 10.6640625 C40.4375 12.6640625 40.4375 12.6640625 40.4375 12.6640625 Z M-16.5625 12.6640625 C-16.5625 15.6640625 -16.5625 15.6640625 -16.5625 15.6640625 Z M-18.5625 15.6640625 C-17.5625 17.6640625 -17.5625 17.6640625 -17.5625 17.6640625 Z M-19.5625 17.6640625 C-18.5625 19.6640625 -18.5625 19.6640625 -18.5625 19.6640625 Z M-21.5625 20.6640625 C-20.5625 22.6640625 -20.5625 22.6640625 -20.5625 22.6640625 Z M45.4375 20.6640625 C46.4375 22.6640625 46.4375 22.6640625 46.4375 22.6640625 Z M-22.5625 22.6640625 C-21.5625 24.6640625 -21.5625 24.6640625 -21.5625 24.6640625 Z M46.4375 22.6640625 C47.4375 24.6640625 47.4375 24.6640625 47.4375 24.6640625 Z M-42.5625 40.6640625 C-42.8925 41.9840625 -43.2225 43.3040625 -43.5625 44.6640625 C-42.9025 44.6640625 -42.2425 44.6640625 -41.5625 44.6640625 C-41.2325 43.3440625 -40.9025 42.0240625 -40.5625 40.6640625 C-41.2225 40.6640625 -41.8825 40.6640625 -42.5625 40.6640625 Z M69.4375 40.6640625 C70.4275 42.1490625 70.4275 42.1490625 71.4375 43.6640625 C72.4275 43.6640625 73.4175 43.6640625 74.4375 43.6640625 C74.1075 42.6740625 73.7775 41.6840625 73.4375 40.6640625 C72.1175 40.6640625 70.7975 40.6640625 69.4375 40.6640625 Z M-26.5625 54.6640625 C-27.26097125 57.5037489 -27.26097125 59.8243761 -26.5625 62.6640625 C-24.57328114 65.6478908 -23.17747432 67.26683091 -19.625 68.140625 C-15.70186508 68.42297183 -13.89137629 67.88331336 -10.5625 65.6640625 C-8.34324914 62.33518621 -7.80359067 60.52469742 -8.0859375 56.6015625 C-8.95973159 53.04908818 -10.5786717 51.65328136 -13.5625 49.6640625 C-19.37913203 48.23335865 -23.17064906 49.57628609 -26.5625 54.6640625 Z M41.4375 54.6640625 C40.73902875 57.5037489 40.73902875 59.8243761 41.4375 62.6640625 C43.42671886 65.6478908 44.82252568 67.26683091 48.375 68.140625 C52.29813492 68.42297183 54.10862371 67.88331336 57.4375 65.6640625 C59.65675086 62.33518621 60.19640933 60.52469742 59.9140625 56.6015625 C59.04026841 53.04908818 57.4213283 51.65328136 54.4375 49.6640625 C48.62086797 48.23335865 44.82935094 49.57628609 41.4375 54.6640625 Z " fill="#000000" transform="translate(47.5625,27.3359375)"/>
<path d="M0 0 C0.70125 0.00515625 1.4025 0.0103125 2.125 0.015625 C2.82625 0.01046875 3.5275 0.0053125 4.25 0 C6.125 0.265625 6.125 0.265625 8.125 2.265625 C8.390625 4.140625 8.390625 4.140625 8.375 6.265625 C8.38015625 6.966875 8.3853125 7.668125 8.390625 8.390625 C8.125 10.265625 8.125 10.265625 6.125 12.265625 C4.25 12.53125 4.25 12.53125 2.125 12.515625 C1.42375 12.52078125 0.7225 12.5259375 0 12.53125 C-1.875 12.265625 -1.875 12.265625 -3.875 10.265625 C-4.140625 8.390625 -4.140625 8.390625 -4.125 6.265625 C-4.13015625 5.564375 -4.1353125 4.863125 -4.140625 4.140625 C-3.75603481 1.4258707 -2.7147543 0.38459019 0 0 Z M1.125 5.265625 C1.125 5.925625 1.125 6.585625 1.125 7.265625 C1.785 7.265625 2.445 7.265625 3.125 7.265625 C3.125 6.605625 3.125 5.945625 3.125 5.265625 C2.465 5.265625 1.805 5.265625 1.125 5.265625 Z " fill="#000000" transform="translate(95.875,79.734375)"/>
<path d="M0 0 C0.70125 0.00515625 1.4025 0.0103125 2.125 0.015625 C2.82625 0.01046875 3.5275 0.0053125 4.25 0 C6.125 0.265625 6.125 0.265625 8.125 2.265625 C8.390625 4.140625 8.390625 4.140625 8.375 6.265625 C8.38015625 6.966875 8.3853125 7.668125 8.390625 8.390625 C8.125 10.265625 8.125 10.265625 6.125 12.265625 C4.25 12.53125 4.25 12.53125 2.125 12.515625 C1.42375 12.52078125 0.7225 12.5259375 0 12.53125 C-1.875 12.265625 -1.875 12.265625 -3.875 10.265625 C-4.140625 8.390625 -4.140625 8.390625 -4.125 6.265625 C-4.13015625 5.564375 -4.1353125 4.863125 -4.140625 4.140625 C-3.75603481 1.4258707 -2.7147543 0.38459019 0 0 Z M1.125 5.265625 C1.125 5.925625 1.125 6.585625 1.125 7.265625 C1.785 7.265625 2.445 7.265625 3.125 7.265625 C3.125 6.605625 3.125 5.945625 3.125 5.265625 C2.465 5.265625 1.805 5.265625 1.125 5.265625 Z " fill="#000000" transform="translate(27.875,79.734375)"/>
<path d="M0 0 C2.64 0 5.28 0 8 0 C8 1.32 8 2.64 8 4 C5.36 4 2.72 4 0 4 C0 2.68 0 1.36 0 0 Z " fill="#000000" transform="translate(62,60)"/>
<path d="M0 0 C2.64 0 5.28 0 8 0 C8 1.32 8 2.64 8 4 C5.36 4 2.72 4 0 4 C0 2.68 0 1.36 0 0 Z " fill="#000000" transform="translate(24,60)"/>
</svg>
