<?xml version="1.0" encoding="UTF-8"?>
<svg version="1.1" xmlns="http://www.w3.org/2000/svg" width="128" height="128">
<path d="M0 0 C2.39120422 2.08266174 3.80175801 3.77045235 4.2734375 6.95703125 C4.36212467 12.73056628 4.0983079 16.32855839 -0.0625 20.6875 C-5.15655563 24.38682887 -10.13213991 26.86623612 -16.234375 28.421875 C-24.31178658 30.72970688 -32.75660382 33.29423997 -37.36535645 40.81298828 C-42.4722047 51.11751497 -45.44466405 62.54419499 -48.13858032 73.68444824 C-51.3881628 86.90460854 -51.3881628 86.90460854 -57.0625 90.6875 C-59 90.98828125 -59 90.98828125 -61.0625 91 C-61.743125 91.01675781 -62.42375 91.03351563 -63.125 91.05078125 C-65.71502751 90.56515109 -66.47908187 89.78257068 -68.0625 87.6875 C-68.23535156 85.21069336 -68.23535156 85.21069336 -67.953125 82.27734375 C-67.85773438 81.20419922 -67.76234375 80.13105469 -67.6640625 79.02539062 C-67.54804687 77.90326172 -67.43203125 76.78113281 -67.3125 75.625 C-67.21195313 74.52994141 -67.11140625 73.43488281 -67.0078125 72.30664062 C-66.70972035 69.09832829 -66.38951817 65.89298022 -66.0625 62.6875 C-65.86959774 60.75132139 -65.6768706 58.81512533 -65.484375 56.87890625 C-65.34397937 55.48174777 -65.20345047 54.08460262 -65.0625 52.6875 C-68.08419083 54.03975858 -71.10466171 55.39472349 -74.125 56.75 C-75.48153687 57.35702759 -75.48153687 57.35702759 -76.86547852 57.97631836 C-81.11869039 59.88585477 -85.35859058 61.81135476 -89.5546875 63.84375 C-90.2262085 64.16722412 -90.89772949 64.49069824 -91.58959961 64.82397461 C-93.39544354 65.69931851 -95.19594644 66.58565629 -96.99609375 67.47265625 C-99.97866852 68.65428778 -101.89901345 68.96541377 -105.0625 68.6875 C-105.90834998 67.13174022 -106.73868399 65.5675388 -107.5625 64 C-108.0265625 63.12988281 -108.490625 62.25976562 -108.96875 61.36328125 C-110.12792365 58.52744572 -110.43398754 56.71615535 -110.0625 53.6875 C-109.4025 53.0275 -108.7425 52.3675 -108.0625 51.6875 C-113.3425 49.3775 -118.6225 47.0675 -124.0625 44.6875 C-122.9375 36.8125 -122.9375 36.8125 -120 32.75 C-119.45214844 31.97785156 -118.90429688 31.20570312 -118.33984375 30.41015625 C-117.91832031 29.84167969 -117.49679688 29.27320312 -117.0625 28.6875 C-111.59685586 29.71533131 -106.23902546 30.90040032 -100.875 32.375 C-93.40248246 34.25987318 -88.83659313 33.22850322 -82.0625 29.6875 C-81.0725 29.6875 -80.0825 29.6875 -79.0625 29.6875 C-79.0625 29.0275 -79.0625 28.3675 -79.0625 27.6875 C-79.79243164 27.41800537 -80.52236328 27.14851074 -81.27441406 26.87084961 C-85.83873678 24.93361036 -89.7362739 22.04591221 -93.8125 19.25 C-94.68777344 18.66412109 -95.56304687 18.07824219 -96.46484375 17.47460938 C-97.29628906 16.90677734 -98.12773438 16.33894531 -98.984375 15.75390625 C-99.74331055 15.23771729 -100.50224609 14.72152832 -101.28417969 14.18969727 C-103.0625 12.6875 -103.0625 12.6875 -104.0625 9.6875 C-102.00986842 3.52960526 -102.00986842 3.52960526 -99.375 1.1875 C-92.80040967 -0.23403304 -86.6685528 2.39491553 -80.7578125 4.98828125 C-79.18941741 5.64275258 -77.62038642 6.29570174 -76.05078125 6.94726562 C-73.61270217 7.97029599 -71.18066358 9.00299085 -68.75830078 10.06274414 C-58.55171208 15.08989698 -58.55171208 15.08989698 -47.76953125 14.4921875 C-46.18108256 13.59071388 -44.61315497 12.65253527 -43.0625 11.6875 C-40.88593191 10.67308674 -38.69886333 9.681016 -36.50390625 8.70703125 C-34.20973059 7.64061341 -31.91677656 6.57156388 -29.625 5.5 C-27.31446694 4.42175124 -25.00329915 3.34486126 -22.69140625 2.26953125 C-21.1765564 1.56147339 -21.1765564 1.56147339 -19.63110352 0.83911133 C-13.4090172 -1.95050764 -6.37396462 -2.73169912 0 0 Z M-36.90249634 15.1618042 C-40.6236393 16.92882005 -44.34929097 18.68629317 -48.07421875 20.4453125 C-48.82539474 20.80033844 -49.57657074 21.15536438 -50.35050964 21.52114868 C-57.24207743 24.77686632 -64.14566146 28.00635248 -71.05786133 31.21801758 C-72.83660264 32.04465552 -74.61459886 32.87289614 -76.39257812 33.70117188 C-78.00229492 34.44850586 -78.00229492 34.44850586 -79.64453125 35.2109375 C-80.57499268 35.64325684 -81.5054541 36.07557617 -82.46411133 36.52099609 C-83.32157959 36.90594238 -84.17904785 37.29088867 -85.0625 37.6875 C-85.92190186 38.07365479 -86.78130371 38.45980957 -87.66674805 38.85766602 C-93.59666016 40.91165269 -101.12897345 38.08010226 -107.0625 36.625 C-107.83722656 36.43873047 -108.61195312 36.25246094 -109.41015625 36.06054688 C-111.29520759 35.60673822 -113.1789927 35.14767508 -115.0625 34.6875 C-116.5231285 37.33488916 -117.0625 38.58198334 -117.0625 41.6875 C-107.6575 45.6475 -107.6575 45.6475 -98.0625 49.6875 C-98.0625 51.0075 -98.0625 52.3275 -98.0625 53.6875 C-100.0425 54.6775 -102.0225 55.6675 -104.0625 56.6875 C-103.4025 58.6675 -102.7425 60.6475 -102.0625 62.6875 C-99.2374644 61.51377645 -96.41345668 60.33768855 -93.59082031 59.15820312 C-91.28556336 58.1973072 -88.97771302 57.24260318 -86.66699219 56.29492188 C-83.24125332 54.87730677 -79.83931487 53.41149048 -76.4375 51.9375 C-75.26832031 51.463125 -74.09914062 50.98875 -72.89453125 50.5 C-66.85507286 48.07678158 -66.85507286 48.07678158 -62.84863281 43.29101562 C-62.3426863 41.03588928 -62.06572074 38.99483882 -62.0625 36.6875 C-61.0725 36.6875 -60.0825 36.6875 -59.0625 36.6875 C-58.85540107 45.49783367 -59.67250607 54.12538403 -60.5625 62.875 C-60.77886849 65.01811295 -60.99371339 67.16133525 -61.20446777 69.30500793 C-61.39505457 71.24170354 -61.59091763 73.17787783 -61.78710938 75.11401367 C-62.0599499 78.6544098 -62.11035972 82.13818883 -62.0625 85.6875 C-60.12457073 85.70689268 -60.12457073 85.70689268 -58.0625 84.6875 C-56.90378021 82.42092436 -56.07102604 80.38661968 -55.26953125 77.9921875 C-55.01976028 77.28697968 -54.76998932 76.58177185 -54.51264954 75.85519409 C-53.67635947 73.47225273 -52.86749942 71.08118345 -52.0625 68.6875 C-51.77324646 67.83740356 -51.48399292 66.98730713 -51.18597412 66.1114502 C-49.00331084 59.69070213 -46.87169096 53.25360524 -44.75 46.8125 C-43.80317418 43.94433759 -42.85543128 41.07648581 -41.90596008 38.209198 C-41.321108 36.44243675 -40.73786079 34.67514321 -40.15641785 32.90725708 C-39.76514458 31.7236409 -39.76514458 31.7236409 -39.3659668 30.51611328 C-39.13757614 29.82268829 -38.90918549 29.12926331 -38.6738739 28.41482544 C-38.0625 26.6875 -38.0625 26.6875 -37.0625 24.6875 C-36.0725 24.6875 -35.0825 24.6875 -34.0625 24.6875 C-34.0625 26.6675 -34.0625 28.6475 -34.0625 30.6875 C-28.32943099 28.95802418 -22.98325355 26.5138083 -17.5625 24 C-16.63824219 23.59072266 -15.71398437 23.18144531 -14.76171875 22.75976562 C-9.01071429 20.08172278 -4.38164605 17.25480083 -1.0625 11.6875 C-0.63172855 8.92074267 -0.63172855 8.92074267 -2.0625 6.6875 C-11.75718179 -0.91103437 -27.20020612 10.55385708 -36.90249634 15.1618042 Z M-97.0625 6.6875 C-97.0625 7.6775 -97.0625 8.6675 -97.0625 9.6875 C-95.68697211 11.04651768 -95.68697211 11.04651768 -93.80859375 12.2109375 C-93.11830078 12.675 -92.42800781 13.1390625 -91.71679688 13.6171875 C-90.98525391 14.09414063 -90.25371094 14.57109375 -89.5 15.0625 C-88.08163209 16.00721348 -86.66366037 16.95252208 -85.24609375 17.8984375 C-84.54806641 18.35839111 -83.85003906 18.81834473 -83.13085938 19.29223633 C-81.10767848 20.65702372 -79.1461293 22.08499801 -77.18359375 23.53515625 C-74.368187 25.89567323 -74.368187 25.89567323 -71.6875 25.75 C-67.76469389 24.16219753 -63.89491907 22.48264183 -60.0625 20.6875 C-62.69242624 17.49351609 -65.70958058 16.44249515 -69.5234375 14.98828125 C-70.15101959 14.7483696 -70.77860168 14.50845795 -71.42520142 14.26127625 C-72.75004852 13.75733323 -74.07645844 13.25748215 -75.40429688 12.76147461 C-77.42803231 12.00354584 -79.44453162 11.22835906 -81.4609375 10.45117188 C-82.75220563 9.96248731 -84.04386043 9.47482298 -85.3359375 8.98828125 C-86.50560059 8.54653564 -87.67526367 8.10479004 -88.88037109 7.6496582 C-91.82915515 6.75805486 -94.01296675 6.47663183 -97.0625 6.6875 Z " fill="#000000" transform="translate(124.0625,19.3125)"/>
</svg>
