<svg width="202" height="48" viewBox="0 0 202 48" fill="none" xmlns="http://www.w3.org/2000/svg">
<path d="M-1.40667e-05 25.024C-1.40667e-05 20.672 0.981319 16.768 2.94399 13.312C4.90665 9.81333 7.57332 7.08267 10.944 5.12C14.3573 3.15733 18.1333 2.176 22.272 2.176C27.136 2.176 31.3813 3.34933 35.008 5.696C38.6347 8.04267 41.28 11.3707 42.944 15.68H35.968C34.7307 12.992 32.9387 10.9227 30.592 9.472C28.288 8.02133 25.5147 7.296 22.272 7.296C19.1573 7.296 16.3627 8.02133 13.888 9.472C11.4133 10.9227 9.47199 12.992 8.06399 15.68C6.65599 18.3253 5.95199 21.44 5.95199 25.024C5.95199 28.5653 6.65599 31.68 8.06399 34.368C9.47199 37.0133 11.4133 39.0613 13.888 40.512C16.3627 41.9627 19.1573 42.688 22.272 42.688C25.5147 42.688 28.288 41.984 30.592 40.576C32.9387 39.1253 34.7307 37.056 35.968 34.368H42.944C41.28 38.6347 38.6347 41.9413 35.008 44.288C31.3813 46.592 27.136 47.744 22.272 47.744C18.1333 47.744 14.3573 46.784 10.944 44.864C7.57332 42.9013 4.90665 40.192 2.94399 36.736C0.981319 33.28 -1.40667e-05 29.376 -1.40667e-05 25.024ZM57.4375 0V47.36H51.6135V0H57.4375ZM82.6595 47.936C79.3742 47.936 76.3875 47.1893 73.6995 45.696C71.0542 44.2027 68.9635 42.0907 67.4275 39.36C65.9342 36.5867 65.1875 33.3867 65.1875 29.76C65.1875 26.176 65.9555 23.0187 67.4915 20.288C69.0702 17.5147 71.2035 15.4027 73.8915 13.952C76.5795 12.4587 79.5875 11.712 82.9155 11.712C86.2435 11.712 89.2515 12.4587 91.9395 13.952C94.6275 15.4027 96.7395 17.4933 98.2755 20.224C99.8542 22.9547 100.643 26.1333 100.643 29.76C100.643 33.3867 99.8328 36.5867 98.2115 39.36C96.6328 42.0907 94.4782 44.2027 91.7475 45.696C89.0168 47.1893 85.9875 47.936 82.6595 47.936ZM82.6595 42.816C84.7502 42.816 86.7128 42.3253 88.5475 41.344C90.3822 40.3627 91.8542 38.8907 92.9635 36.928C94.1155 34.9653 94.6915 32.576 94.6915 29.76C94.6915 26.944 94.1368 24.5547 93.0275 22.592C91.9182 20.6293 90.4675 19.1787 88.6755 18.24C86.8835 17.2587 84.9422 16.768 82.8515 16.768C80.7182 16.768 78.7555 17.2587 76.9635 18.24C75.2142 19.1787 73.8062 20.6293 72.7395 22.592C71.6728 24.5547 71.1395 26.944 71.1395 29.76C71.1395 32.6187 71.6515 35.0293 72.6755 36.992C73.7422 38.9547 75.1502 40.4267 76.8995 41.408C78.6488 42.3467 80.5688 42.816 82.6595 42.816ZM121.357 41.984L132.237 12.288H138.445L124.685 47.36H117.901L104.141 12.288H110.413L121.357 41.984ZM176.176 28.48C176.176 29.5893 176.112 30.7627 175.984 32H147.952C148.165 35.456 149.339 38.1653 151.472 40.128C153.648 42.048 156.272 43.008 159.344 43.008C161.861 43.008 163.952 42.432 165.616 41.28C167.323 40.0853 168.517 38.5067 169.2 36.544H175.472C174.533 39.9147 172.656 42.6667 169.84 44.8C167.024 46.8907 163.525 47.936 159.344 47.936C156.016 47.936 153.029 47.1893 150.384 45.696C147.781 44.2027 145.733 42.0907 144.24 39.36C142.747 36.5867 142 33.3867 142 29.76C142 26.1333 142.725 22.9547 144.176 20.224C145.627 17.4933 147.653 15.4027 150.256 13.952C152.901 12.4587 155.931 11.712 159.344 11.712C162.672 11.712 165.616 12.4373 168.176 13.888C170.736 15.3387 172.699 17.344 174.064 19.904C175.472 22.4213 176.176 25.28 176.176 28.48ZM170.16 27.264C170.16 25.0453 169.669 23.1467 168.688 21.568C167.707 19.9467 166.363 18.7307 164.656 17.92C162.992 17.0667 161.136 16.64 159.088 16.64C156.144 16.64 153.627 17.5787 151.536 19.456C149.488 21.3333 148.315 23.936 148.016 27.264H170.16ZM189.687 17.984C190.711 15.9787 192.162 14.4213 194.039 13.312C195.959 12.2027 198.285 11.648 201.015 11.648V17.664H199.479C192.951 17.664 189.687 21.2053 189.687 28.288V47.36H183.863V12.288H189.687V17.984Z" fill="#03A8C0"/>
</svg>
