<svg width="250" height="200" viewBox="0 0 250 200" fill="none" xmlns="http://www.w3.org/2000/svg">
<path d="M26.7057 179.272C26.7057 175.603 27.4524 172.403 28.9458 169.672C30.4391 166.899 32.5084 164.765 35.1538 163.272C37.7991 161.736 40.8284 160.968 44.2418 160.968C48.6364 160.968 52.2631 162.077 55.1218 164.296C58.0231 166.472 59.9644 169.544 60.9458 173.512H51.2818C50.7698 171.976 49.8951 170.781 48.6578 169.928C47.4631 169.032 45.9698 168.584 44.1778 168.584C41.6178 168.584 39.5911 169.523 38.0978 171.4C36.6044 173.235 35.8578 175.859 35.8578 179.272C35.8578 182.643 36.6044 185.267 38.0978 187.144C39.5911 188.979 41.6178 189.896 44.1778 189.896C47.8044 189.896 50.1724 188.275 51.2818 185.032H60.9458C59.9644 188.872 58.0231 191.923 55.1218 194.184C52.2204 196.445 48.5938 197.576 44.2418 197.576C40.8284 197.576 37.7991 196.829 35.1538 195.336C32.5084 193.8 30.4391 191.667 28.9458 188.936C27.4524 186.163 26.7057 182.941 26.7057 179.272ZM76.4698 149.64V197H67.5098V149.64H76.4698ZM101.066 197.576C97.6529 197.576 94.5809 196.829 91.8503 195.336C89.1196 193.8 86.9649 191.645 85.3863 188.872C83.8503 186.099 83.0823 182.899 83.0823 179.272C83.0823 175.645 83.8716 172.445 85.4503 169.672C87.0716 166.899 89.2689 164.765 92.0423 163.272C94.8156 161.736 97.9089 160.968 101.322 160.968C104.736 160.968 107.829 161.736 110.602 163.272C113.376 164.765 115.552 166.899 117.13 169.672C118.752 172.445 119.562 175.645 119.562 179.272C119.562 182.899 118.73 186.099 117.066 188.872C115.445 191.645 113.226 193.8 110.41 195.336C107.637 196.829 104.522 197.576 101.066 197.576ZM101.066 189.768C102.688 189.768 104.202 189.384 105.61 188.616C107.061 187.805 108.213 186.611 109.066 185.032C109.92 183.453 110.346 181.533 110.346 179.272C110.346 175.901 109.45 173.32 107.658 171.528C105.909 169.693 103.754 168.776 101.194 168.776C98.6343 168.776 96.4796 169.693 94.7303 171.528C93.0236 173.32 92.1703 175.901 92.1703 179.272C92.1703 182.643 93.0023 185.245 94.6663 187.08C96.3729 188.872 98.5063 189.768 101.066 189.768ZM140.919 188.744L149.879 161.544H159.415L146.295 197H135.415L122.359 161.544H131.959L140.919 188.744ZM197.407 178.504C197.407 179.784 197.322 180.936 197.151 181.96H171.231C171.445 184.52 172.341 186.525 173.919 187.976C175.498 189.427 177.439 190.152 179.743 190.152C183.071 190.152 185.439 188.723 186.847 185.864H196.511C195.487 189.277 193.525 192.093 190.623 194.312C187.722 196.488 184.159 197.576 179.935 197.576C176.522 197.576 173.45 196.829 170.719 195.336C168.031 193.8 165.919 191.645 164.383 188.872C162.89 186.099 162.143 182.899 162.143 179.272C162.143 175.603 162.89 172.381 164.383 169.608C165.877 166.835 167.967 164.701 170.655 163.208C173.343 161.715 176.437 160.968 179.935 160.968C183.306 160.968 186.314 161.693 188.959 163.144C191.647 164.595 193.717 166.664 195.167 169.352C196.661 171.997 197.407 175.048 197.407 178.504ZM188.127 175.944C188.085 173.64 187.253 171.805 185.631 170.44C184.01 169.032 182.026 168.328 179.679 168.328C177.461 168.328 175.583 169.011 174.047 170.376C172.554 171.699 171.637 173.555 171.295 175.944H188.127ZM212.907 167.048C214.059 165.171 215.553 163.699 217.387 162.632C219.265 161.565 221.398 161.032 223.787 161.032V170.44H221.419C218.603 170.44 216.47 171.101 215.019 172.424C213.611 173.747 212.907 176.051 212.907 179.336V197H203.947V161.544H212.907V167.048Z" fill="#03A8C0"/>
<path d="M63 40C63 28.9543 71.9543 20 83 20C83 8.9543 91.9543 -1.26563e-06 103 -1.74846e-06C114.046 -2.23128e-06 123 8.9543 123 20L123 60L83 60C71.9543 60 63 51.0457 63 40Z" fill="#03A8C0"/>
<path d="M103 124C91.9543 124 83 115.046 83 104C71.9543 104 63 95.0457 63 84C63 72.9543 71.9543 64 83 64L123 64L123 104C123 115.046 114.046 124 103 124Z" fill="#03A8C0"/>
<path d="M187 84C187 95.0457 178.046 104 167 104C167 115.046 158.046 124 147 124C135.954 124 127 115.046 127 104L127 64L167 64C178.046 64 187 72.9543 187 84Z" fill="#03A8C0"/>
<path d="M95 146C118.201 145.897 125.061 139.623 125 116" stroke="#03A8C0" stroke-width="4"/>
<path d="M187 40C187 51.0457 175.807 60 162 60C157.556 60 153.384 59.0716 149.768 57.4453L147.071 60.1426L138.464 51.5352L151 39L148.172 36.1719L135.636 48.707L127 40.0713L129.642 37.4287C127.96 33.7678 127 29.524 127 25C127 11.1929 135.954 8.05776e-07 147 0H187V40Z" fill="#6EE7B7"/>
</svg>
