<svg width="198" height="48" viewBox="0 0 198 48" fill="none" xmlns="http://www.w3.org/2000/svg">
<path d="M0.000183582 29.6319C0.000183582 25.9625 0.74685 22.7625 2.24018 20.0319C3.73352 17.2585 5.80285 15.1252 8.44818 13.6319C11.0935 12.0959 14.1229 11.3279 17.5362 11.3279C21.9309 11.3279 25.5575 12.4372 28.4162 14.6559C31.3175 16.8319 33.2589 19.9039 34.2402 23.8719H24.5762C24.0642 22.3359 23.1895 21.1412 21.9522 20.2879C20.7575 19.3919 19.2642 18.9439 17.4722 18.9439C14.9122 18.9439 12.8855 19.8825 11.3922 21.7599C9.89885 23.5945 9.15218 26.2185 9.15218 29.6319C9.15218 33.0025 9.89885 35.6265 11.3922 37.5039C12.8855 39.3385 14.9122 40.2559 17.4722 40.2559C21.0989 40.2559 23.4669 38.6345 24.5762 35.3919H34.2402C33.2589 39.2319 31.3175 42.2825 28.4162 44.5439C25.5149 46.8052 21.8882 47.9359 17.5362 47.9359C14.1229 47.9359 11.0935 47.1892 8.44818 45.6959C5.80285 44.1599 3.73352 42.0265 2.24018 39.2959C0.74685 36.5225 0.000183582 33.3012 0.000183582 29.6319ZM49.7642 -0.000137329V47.3599H40.8042V-0.000137329H49.7642ZM74.3607 47.9359C70.9474 47.9359 67.8754 47.1892 65.1447 45.6959C62.414 44.1599 60.2594 42.0052 58.6807 39.2319C57.1447 36.4585 56.3767 33.2585 56.3767 29.6319C56.3767 26.0052 57.166 22.8052 58.7447 20.0319C60.366 17.2585 62.5634 15.1252 65.3367 13.6319C68.11 12.0959 71.2034 11.3279 74.6167 11.3279C78.03 11.3279 81.1234 12.0959 83.8967 13.6319C86.67 15.1252 88.846 17.2585 90.4247 20.0319C92.046 22.8052 92.8567 26.0052 92.8567 29.6319C92.8567 33.2585 92.0247 36.4585 90.3607 39.2319C88.7394 42.0052 86.5207 44.1599 83.7047 45.6959C80.9314 47.1892 77.8167 47.9359 74.3607 47.9359ZM74.3607 40.1279C75.982 40.1279 77.4967 39.7439 78.9047 38.9759C80.3554 38.1652 81.5074 36.9705 82.3607 35.3919C83.214 33.8132 83.6407 31.8932 83.6407 29.6319C83.6407 26.2612 82.7447 23.6799 80.9527 21.8879C79.2034 20.0532 77.0487 19.1359 74.4887 19.1359C71.9287 19.1359 69.774 20.0532 68.0247 21.8879C66.318 23.6799 65.4647 26.2612 65.4647 29.6319C65.4647 33.0025 66.2967 35.6052 67.9607 37.4399C69.6674 39.2319 71.8007 40.1279 74.3607 40.1279ZM114.213 39.1039L123.173 11.9039H132.709L119.589 47.3599H108.709L95.6532 11.9039H105.253L114.213 39.1039ZM170.702 28.8639C170.702 30.1439 170.616 31.2959 170.446 32.3199H144.526C144.739 34.8799 145.635 36.8852 147.214 38.3359C148.792 39.7865 150.734 40.5119 153.038 40.5119C156.366 40.5119 158.734 39.0825 160.142 36.2239H169.806C168.782 39.6372 166.819 42.4532 163.918 44.6719C161.016 46.8479 157.454 47.9359 153.23 47.9359C149.816 47.9359 146.744 47.1892 144.014 45.6959C141.326 44.1599 139.214 42.0052 137.678 39.2319C136.184 36.4585 135.438 33.2585 135.438 29.6319C135.438 25.9625 136.184 22.7412 137.678 19.9679C139.171 17.1945 141.262 15.0612 143.95 13.5679C146.638 12.0745 149.731 11.3279 153.23 11.3279C156.6 11.3279 159.608 12.0532 162.254 13.5039C164.942 14.9545 167.011 17.0239 168.462 19.7119C169.955 22.3572 170.702 25.4079 170.702 28.8639ZM161.422 26.3039C161.379 23.9999 160.547 22.1652 158.926 20.7999C157.304 19.3919 155.32 18.6879 152.974 18.6879C150.755 18.6879 148.878 19.3705 147.342 20.7359C145.848 22.0585 144.931 23.9145 144.59 26.3039H161.422ZM186.202 17.4079C187.354 15.5305 188.847 14.0585 190.682 12.9919C192.559 11.9252 194.692 11.3919 197.082 11.3919V20.7999H194.714C191.898 20.7999 189.764 21.4612 188.314 22.7839C186.906 24.1065 186.202 26.4105 186.202 29.6959V47.3599H177.242V11.9039H186.202V17.4079Z" fill="#03A8C0"/>
</svg>
