<!-- by TradingView --><svg width="56" height="56" viewBox="0 0 56 56" xmlns="http://www.w3.org/2000/svg"><path fill="#0A1885" d="M0 0h56v56H0z"/><path fill-rule="evenodd" d="m28.23 31.45 2.57-.86a.1.1 0 0 1 .12.05l.01.04v5.57a.16.16 0 0 1-.1.16l-12.35 4.26a.1.1 0 0 0-.06.13l.03.04a16 16 0 0 0 21.32-23.67.08.08 0 0 0-.1.08v1.32a1127.82 1127.82 0 0 0-20.09 6.85.17.17 0 0 0-.12.16v2.37c0 .02 0 .04-.02.06a.1.1 0 0 1-.04.03l-2.5.83a.1.1 0 0 1-.1-.01.1.1 0 0 1-.04-.09v-4.76a.33.33 0 0 1 .22-.3l21.6-7.48a.12.12 0 0 0 .04-.2 16 16 0 0 0-21.97 23.23.1.1 0 0 0 .11-.09v-.67a.13.13 0 0 1 .1-.12l11.23-3.76a.12.12 0 0 0 .08-.11v-2.98a.09.09 0 0 1 .06-.08Zm-8.52 1.13 20.08-6.71a.07.07 0 0 0 .05-.07v-2.66a.07.07 0 0 0-.1-.07l-22.86 7.65a.07.07 0 0 0-.05.07v5.53a.07.07 0 0 0 .06.07h.04l2.68-.9a.07.07 0 0 0 .05-.07v-2.77a.07.07 0 0 1 .05-.07Z" fill="#fff"/></svg>