<!-- by TradingView --><svg width="56" height="56" viewBox="0 0 56 56" xmlns="http://www.w3.org/2000/svg"><path fill="#F0F3FA" d="M0 0h56v56H0z"/><path fill-rule="evenodd" d="M8.15 30C7.77 29.8 7 29.2 7 28.4s1.08-1.93 1.62-2.4c.46.4 1.38 1.44 1.38 2.4s-.15 1.2-.23 1.2c0-.6-.19-1.88-.92-2.2-.31.13-.93.56-.93 1.2 0 .64.16 1.2.23 1.4Zm.47-3v.2c-.31.2-.93.72-.93 1.2 0-.33.19-1.08.93-1.4Z" fill="#0B4375"/><path d="M4 30v-4h1.43c.33 0 .6.06.84.17.24.1.41.26.54.46.13.2.19.45.19.74 0 .28-.06.53-.2.73-.12.2-.3.36-.53.47-.23.11-.51.17-.84.17h-1.2l.18-.2V30H4Zm.4-1.43-.18-.2h1.2c.39 0 .68-.09.87-.26.2-.18.3-.42.3-.74s-.1-.57-.3-.74c-.2-.18-.48-.26-.87-.26h-1.2l.19-.2v2.4ZM12.26 30c-1.09 0-1.76-.98-1.76-2s.68-2 1.77-2c.48 0 .93.19 1.23.57l-.23.27a1.23 1.23 0 0 0-1-.47c-.87 0-1.42.81-1.42 1.63 0 .82.54 1.63 1.43 1.63.38 0 .72-.14 1-.47l.22.26c-.3.38-.74.58-1.24.58ZM20.76 30c-1.09 0-1.76-.98-1.76-2s.68-2 1.77-2c.48 0 .93.19 1.23.57l-.23.27a1.23 1.23 0 0 0-1-.47c-.87 0-1.42.81-1.42 1.63 0 .82.54 1.63 1.43 1.63.38 0 .72-.14 1-.47l.22.26c-.3.38-.74.58-1.24.58ZM14 30v-4h.35v4H14ZM18 30v-4h.35v4H18ZM41.65 30v-4H42v4h-.35ZM15.35 28H17v.37h-1.65V28Zm0 2H15v-4h2v.37h-1.65V30ZM22.3 30l1.35-4h.3l1.35 4h-.32l-1.24-3.75h.13L22.63 30h-.33Zm.5-1 .1-.34h1.71l.1.34h-1.9ZM30.25 26h.38v4h-.38v-4Zm-2.24 4h-.38v-4H28v4Zm2.24-1.63h-2.32V28h2.32v.37ZM33 30a1.97 1.97 0 0 1-1.86-1.2c-.1-.25-.14-.51-.14-.8a1.97 1.97 0 0 1 .57-1.43c.18-.18.39-.32.63-.42.25-.1.51-.15.8-.15a2.05 2.05 0 0 1 1.43.57c.18.18.32.39.42.63.1.25.15.51.15.8a2.05 2.05 0 0 1-.57 1.43A1.9 1.9 0 0 1 33 30Zm0-.37a1.51 1.51 0 0 0 1.47-.98c.09-.2.13-.41.13-.65 0-.24-.04-.45-.12-.65a1.54 1.54 0 0 0-.85-.86c-.19-.08-.4-.12-.63-.12a1.63 1.63 0 0 0-1.15.47A1.66 1.66 0 0 0 31.4 28c0 .23.04.45.12.65.08.2.2.37.33.52a1.57 1.57 0 0 0 1.15.46ZM35.65 30v-4H36v3.63h1.65V30h-2ZM38 30v-4h1.3c1.1 0 1.7.99 1.7 2s-.6 2-1.7 2H38Zm.35-.37h.93c.9 0 1.39-.8 1.39-1.63 0-.83-.5-1.63-1.4-1.63h-.92v3.26ZM43 30v-4h.35l2.44 3.47h-.14V26H46v4h-.35l-2.43-3.47h.13V30H43ZM48.26 30c-1.1 0-1.76-.98-1.76-2s.67-2 1.76-2c.51 0 .94.19 1.24.57l-.22.26a1.25 1.25 0 0 0-1-.46c-.89 0-1.43.8-1.43 1.63 0 .82.54 1.63 1.42 1.63.39 0 .58-.13.87-.44l.2.31c-.32.33-.62.5-1.08.5Zm.74-.55V28h.34v1.5l-.34-.05ZM51 30c-.2 0-.4-.05-.58-.14-.18-.1-.32-.22-.42-.37l.11-.32c.1.13.22.25.38.34a1.03 1.03 0 0 0 .92.05c.1-.07.18-.15.23-.26.05-.1.08-.22.08-.34a.67.67 0 0 0-.1-.38.62.62 0 0 0-.23-.21c-.1-.06-.2-.11-.32-.15l-.35-.13a1.37 1.37 0 0 1-.33-.2.88.88 0 0 1-.24-.3c-.06-.13-.08-.3-.08-.51 0-.2.03-.37.1-.54.07-.16.18-.3.33-.39a1.13 1.13 0 0 1 1.01-.06c.14.07.27.15.38.26l-.1.33c-.11-.11-.24-.2-.37-.25a.98.98 0 0 0-.37-.08c-.16 0-.3.04-.4.1a.6.6 0 0 0-.23.26.85.85 0 0 0-.07.36c0 .15.02.27.08.37.07.1.14.16.24.22.1.05.21.1.33.14l.35.13c.12.05.22.11.32.2.1.07.18.17.24.3.06.12.09.3.09.5 0 .19-.04.37-.1.53a.92.92 0 0 1-.34.4A1 1 0 0 1 51 30Z" fill="#484949"/></svg>