<!-- by TradingView --><svg width="56" height="56" viewBox="0 0 56 56" xmlns="http://www.w3.org/2000/svg"><path fill="#FFD500" d="M0 0h56v56H0z"/><path d="M28 43c-1.22 0-2-.91-2-.91-1-.04-8.8-.03-8.8-.03l-.61-5.95s-4.81-3.23-5.2-3.6C9.08 22.51 17.43 13 27.99 13c10.58 0 18.93 9.52 16.62 19.5-.39.37-5.2 3.6-5.2 3.6l-.91 5.96s-7.81-.02-8.8.03c0-.01-.48.91-1.7.91Z" fill="#ED1C24"/><path d="m28.01 33.7-.74-17.66c-.88-.18-3.16.03-4.38.9l3.54 16.82-4.82-16.13c-1.16-.02-3.5 1.85-3.67 2.4l7.05 14.31-7.92-13.07c-.78.28-2.5 3.27-2.22 3.61l8.83 10.3-9.08-8.79s-1.18 1.72-.42 4.62l5.13 3.53.6 4.71h6.28s1.08 1.04 1.81 1.04 1.71-1.04 1.71-1.04H36l.7-4.71L41.83 31c.77-2.9-.42-4.62-.42-4.62l-9.07 8.8 8.82-10.3c.28-.35-1.43-3.34-2.21-3.62l-7.92 13.09 7.05-14.32c-.18-.55-2.51-2.41-3.67-2.4l-4.83 16.13 3.54-16.82c-1.22-.87-3.48-1.08-4.38-.9l-.73 17.64Z" fill="#FFD500"/></svg>