<!-- by TradingView --><svg width="56" height="56" viewBox="0 0 56 56" xmlns="http://www.w3.org/2000/svg"><path fill="#F0F3FA" d="M0 0h56v56H0z"/><path d="M34.58 36.47c-8.05 6.83-17.53 8.59-21.16 3.91-3.63-4.68-.05-14.01 8-20.85 8.05-6.83 17.53-8.59 21.16-3.91 3.63 4.68.05 14.01-8 20.85Z" fill="#DA251C"/><path fill-rule="evenodd" d="M22.16 41.76c3.63-.67 7.85-2.73 11.77-6.06 3.92-3.32 6.72-7.23 8.1-10.83 1.4-3.63 1.26-6.7-.24-8.64-1.49-1.91-4.3-2.66-7.95-1.99-3.63.67-7.85 2.73-11.77 6.06-3.92 3.32-6.72 7.23-8.1 10.83-1.4 3.63-1.26 6.7.24 8.64 1.49 1.91 4.3 2.66 7.95 1.99Zm-8.74-1.38c3.63 4.68 13.1 2.92 21.16-3.91 8.05-6.84 11.63-16.17 8-20.85-3.63-4.68-13.1-2.92-21.16 3.91-8.05 6.84-11.63 16.17-8 20.85Z" fill="#0E0C0D"/><path d="m28 17-2.5 8-3-1 1.5 3-8 1 8 2.5-1.5 2.5 3-.5L28 39l2.5-6.5 3 .5-1.5-2.5 8-2.5-8-1 1.5-3-3 1-2.5-8Z" fill="#A6AFAA"/><path d="m28 26-2 2.5 2 2.5 2-2.5-2-2.5Z" fill="#D5D5D5"/><path d="m26 28.5 2 2.5 2-2.5-2-1-2 1Z" fill="#FDFDFD"/></svg>