<!-- by TradingView --><svg width="56" height="56" viewBox="0 0 56 56" xmlns="http://www.w3.org/2000/svg"><path fill="#F0F3FA" d="M0 0h56v56H0z"/><path d="M29.06 15.04A13 13 0 0 0 15.63 24h8.96l5.23 9.58 2.47-6.8a7 7 0 0 1-3.23-11.74Zm10.3 6.65a13.02 13.02 0 0 0-8.98-6.47 6 6 0 0 0 3.26 10.77L30 36l-6-11h-8l8 15h8.5l6.87-18.31Zm.61 1.23L33.68 39.7a13 13 0 0 0 6.3-16.78ZM22.83 39.93l-7.62-14.28a13 13 0 0 0 7.62 14.28Z" fill="#867024"/><path d="M42 28a14 14 0 1 1-11.86-13.84c1-.66 2.19-1.08 3.47-1.15a16 16 0 1 0 7.21 5.42c.3 1.33.1 1.95-.36 3.18A13.94 13.94 0 0 1 42 28Z" fill="#18462C"/><path d="M40 20a6 6 0 1 0-6.36 5.99L30 36l-6-11h-8l8 15h8.5L40 20Z" fill="#18462C"/></svg>