<!-- by TradingView --><svg width="56" height="56" viewBox="0 0 56 56" xmlns="http://www.w3.org/2000/svg"><path fill="#F0F3FA" d="M0 0h56v56H0z"/><path d="M4 30v-1l2.5-3H4v-1h4v1l-2.5 3H8v1H4ZM10.08 30C8.88 30 8 29.23 8 28c0-1.17.86-2 2.03-2s1.97.8 1.97 1.97v.3H8.46v-.67h2.45c0-.48-.4-.8-.86-.8-.47 0-1.04.34-1.05.83v.63c0 .56.54.94 1.1.94.33 0 .77-.13.9-.45h1c-.2.86-1.13 1.25-1.92 1.25ZM15.5 28.27V26h1v4h-1v-.77c-.2.46-.84.77-1.5.77s-1.5-.62-1.5-1.49V26h1v2.32c0 .68.5.75.96.75.47 0 1.05-.33 1.04-.8ZM20.9 27.16l-1.13.06a.48.48 0 0 0-.13-.23.66.66 0 0 0-.25-.17.97.97 0 0 0-.37-.06c-.19 0-.35.04-.48.1-.13.08-.2.17-.2.29 0 .09.05.17.13.23.09.06.23.11.44.15l.8.14c.44.08.76.2.97.38.21.17.32.4.32.67 0 .26-.09.48-.26.67-.17.2-.4.34-.7.45-.3.1-.63.16-1.02.16-.59 0-1.06-.1-1.4-.32-.36-.22-.56-.5-.62-.88l1.21-.05c.04.15.13.27.27.35.14.09.32.13.54.13.22 0 .4-.04.52-.11.14-.08.2-.17.2-.29 0-.1-.04-.18-.14-.24a1.1 1.1 0 0 0-.42-.14l-.78-.14c-.43-.07-.75-.2-.97-.4a.91.91 0 0 1-.31-.7c0-.25.08-.47.23-.65.16-.18.38-.32.66-.41.28-.1.61-.15 1-.15.56 0 1 .1 1.32.31.33.2.51.49.57.85ZM23 30v-5h1v2h2v-2h1v5h-1v-2h-2v2h-1ZM29.25 29.99c-1.17 0-2-.83-2-2s.83-2 2-2 2 .83 2 2-.83 2-2 2Zm0-.99c.62 0 .85-.49.85-1.02s-.23-.98-.85-.98c-.63 0-.86.44-.86.98s.23 1.02.86 1.02ZM32.5 25v5h-1v-5h1ZM37.5 30v-3.5h1V30h-1ZM37.5 26v-1h1v1h-1ZM40 28v2h-1v-4h1v.75c.2-.46.86-.75 1.5-.75.88 0 1.5.6 1.5 1.49V30h-1v-2.32c0-.68-.52-.68-1-.68s-1 .52-1 1ZM45.5 31c-.7 0-1.68-.2-1.87-.99l1.05-.12c.14.32.53.4.84.4.44 0 .98-.19.98-.67v-.65c-.22.42-.9.57-1.34.57-1.02 0-1.66-.73-1.66-1.73 0-.99.62-1.81 1.66-1.81.48 0 1.1.2 1.34.64V26h1v3.63c0 1.05-1.13 1.37-2 1.37Zm.02-2.2c.56 0 .98-.38.98-1 0-.52-.4-1.02-.98-1.02s-1.02.5-1.02 1.03a1 1 0 0 0 1.02 1ZM51.9 27.16l-1.13.06a.48.48 0 0 0-.13-.23.66.66 0 0 0-.25-.17.97.97 0 0 0-.37-.06c-.19 0-.35.04-.48.1-.13.08-.2.17-.2.29 0 .09.05.17.13.23.09.06.23.11.44.15l.8.14c.44.08.76.2.97.38.21.17.32.4.32.67 0 .26-.09.48-.26.67-.17.2-.4.34-.7.45-.3.1-.63.16-1.02.16-.59 0-1.06-.1-1.4-.32-.36-.22-.56-.5-.62-.88l1.21-.05c.04.15.13.27.27.35.14.09.32.13.54.13.22 0 .4-.04.52-.11.14-.08.2-.17.2-.29 0-.1-.04-.18-.14-.24a1.1 1.1 0 0 0-.42-.14l-.78-.14c-.43-.07-.75-.2-.97-.4a.91.91 0 0 1-.31-.7c0-.25.08-.47.23-.65.16-.18.38-.32.66-.41.28-.1.61-.15 1-.15.56 0 1 .1 1.32.31.33.2.51.49.57.85Z" fill="#010181"/><path fill-rule="evenodd" d="M37 25h-1v1.36a1.37 1.37 0 0 0-1-.36c-1.5 0-2 1-2 2s.64 2 2 2c.37 0 .73-.17 1-.49V30h1v-5Zm-1 3a1 1 0 1 0-2 0 1 1 0 0 0 2 0Z" fill="#010181"/></svg>