<svg width="124" height="148" viewBox="0 0 124 148" fill="none" xmlns="http://www.w3.org/2000/svg">
<path d="M-8.74228e-07 40C-1.35705e-06 28.9543 8.9543 20 20 20C20 8.9543 28.9543 -1.26563e-06 40 -1.74845e-06C51.0457 -2.23128e-06 60 8.9543 60 20L60 60L20 60C8.95431 60 -3.91405e-07 51.0457 -8.74228e-07 40Z" fill="#03A8C0"/>
<path d="M40 124C28.9543 124 20 115.046 20 104C8.9543 104 -2.53127e-06 95.0457 -3.49691e-06 84C-4.46256e-06 72.9543 8.9543 64 20 64L60 64L60 104C60 115.046 51.0457 124 40 124Z" fill="#03A8C0"/>
<path d="M124 84C124 95.0457 115.046 104 104 104C104 115.046 95.0457 124 84 124C72.9543 124 64 115.046 64 104L64 64L104 64C115.046 64 124 72.9543 124 84Z" fill="#03A8C0"/>
<path d="M32 146C55.2012 145.897 62.0608 139.623 61.9996 116" stroke="#03A8C0" stroke-width="4"/>
<path d="M124 40C124 51.0457 112.807 60 99 60C94.5563 60 90.3837 59.0716 86.7676 57.4453L84.0713 60.1426L75.4639 51.5352L88 39L85.1719 36.1719L72.6357 48.707L64 40.0713L66.6416 37.4287C64.9604 33.7678 64 29.524 64 25C64 11.1929 72.9543 8.05776e-07 84 0H124V40Z" fill="#6EE7B7"/>
</svg>
