<?xml version="1.0" encoding="UTF-8"?>
<svg version="1.1" xmlns="http://www.w3.org/2000/svg" width="128" height="128">
<path d="M0 0 C11.82850052 8.89739115 19.68146485 21.08834339 22.08447266 35.74243164 C24.39810663 52.22755973 19.96568284 66.72091878 10 80 C9.38640625 80.825 8.7728125 81.65 8.140625 82.5 C0.2093905 91.76275562 -12.09546993 98.00223295 -24.21508789 99.22314453 C-38.6744653 99.94307474 -53.27359596 98.23502208 -64.7578125 88.51171875 C-66 87 -66 87 -65.75 84.375 C-65 82 -65 82 -64 81 C-59.87721516 80.39666563 -57.60348336 81.04736824 -54.25 83.3125 C-44.33184469 89.87488848 -32.61611661 90.39344204 -21.1015625 88.53125 C-8.24780347 85.1252066 0.91117193 76.97305776 7.640625 65.8203125 C11.00375988 58.84277404 12.5629003 52.43219936 12.5 44.6875 C12.49141968 43.44528687 12.49141968 43.44528687 12.48266602 42.17797852 C12.27405783 34.96800183 10.65202969 29.26591896 7 23 C6.49210937 22.10796875 5.98421875 21.2159375 5.4609375 20.296875 C-0.57622572 10.74041758 -10.35284719 4.16542146 -21.32421875 1.41796875 C-34.06709515 -0.57252435 -46.4899285 1.07537519 -57.375 8.25 C-66.66242757 15.33975427 -73.39458823 24.21559443 -75 36 C-73.97519531 35.4225 -72.95039062 34.845 -71.89453125 34.25 C-70.53415791 33.49944919 -69.1734638 32.7494796 -67.8125 32 C-67.13896484 31.6184375 -66.46542969 31.236875 -65.77148438 30.84375 C-59.04896838 27.17096077 -59.04896838 27.17096077 -55 28 C-53 31 -53 31 -53.07250977 33.49511719 C-54.31060394 36.83885139 -55.7068046 37.44806201 -58.83984375 39.078125 C-60.3103418 39.85929687 -60.3103418 39.85929687 -61.81054688 40.65625 C-62.84244141 41.1821875 -63.87433594 41.708125 -64.9375 42.25 C-65.96552734 42.79140625 -66.99355469 43.3328125 -68.05273438 43.890625 C-78.02558737 49.12915579 -78.02558737 49.12915579 -85 49 C-87.15669221 45.11008386 -89.29841848 41.21212401 -91.4375 37.3125 C-92.04916016 36.20970703 -92.66082031 35.10691406 -93.29101562 33.97070312 C-93.87431641 32.90400391 -94.45761719 31.83730469 -95.05859375 30.73828125 C-95.59798584 29.75899658 -96.13737793 28.77971191 -96.69311523 27.77075195 C-97.9486657 25.10883486 -98.68165937 22.91943968 -99 20 C-97.875 18.1875 -97.875 18.1875 -96 17 C-94.35 17 -92.7 17 -91 17 C-89.02 20.63 -87.04 24.26 -85 28 C-82.97886084 25.10810177 -82.97886084 25.10810177 -81.625 22.21484375 C-74.17218412 7.18380403 -63.31712279 -1.71616233 -47.54296875 -7.23828125 C-31.52247537 -12.03704655 -13.80647252 -9.25155123 0 0 Z " fill="#000000" transform="translate(102,19)"/>
</svg>
