<svg width="198" height="48" viewBox="0 0 198 48" fill="none" xmlns="http://www.w3.org/2000/svg">
<path d="M-6.05583e-05 29.6319C-6.05583e-05 25.9625 0.746606 22.7625 2.23994 20.0319C3.73327 17.2585 5.80261 15.1252 8.44794 13.6319C11.0933 12.0959 14.1226 11.3279 17.5359 11.3279C21.9306 11.3279 25.5573 12.4372 28.4159 14.6559C31.3173 16.8319 33.2586 19.9039 34.2399 23.8719H24.5759C24.0639 22.3359 23.1893 21.1412 21.9519 20.2879C20.7573 19.3919 19.2639 18.9439 17.4719 18.9439C14.9119 18.9439 12.8853 19.8825 11.3919 21.7599C9.89861 23.5945 9.15194 26.2185 9.15194 29.6319C9.15194 33.0025 9.89861 35.6265 11.3919 37.5039C12.8853 39.3385 14.9119 40.2559 17.4719 40.2559C21.0986 40.2559 23.4666 38.6345 24.5759 35.3919H34.2399C33.2586 39.2319 31.3173 42.2825 28.4159 44.5439C25.5146 46.8052 21.8879 47.9359 17.5359 47.9359C14.1226 47.9359 11.0933 47.1892 8.44794 45.6959C5.80261 44.1599 3.73327 42.0265 2.23994 39.2959C0.746606 36.5225 -6.05583e-05 33.3012 -6.05583e-05 29.6319ZM49.7639 -0.000137329V47.3599H40.8039V-0.000137329H49.7639ZM74.3604 47.9359C70.9471 47.9359 67.8751 47.1892 65.1444 45.6959C62.4138 44.1599 60.2591 42.0052 58.6804 39.2319C57.1444 36.4585 56.3764 33.2585 56.3764 29.6319C56.3764 26.0052 57.1658 22.8052 58.7444 20.0319C60.3658 17.2585 62.5631 15.1252 65.3364 13.6319C68.1098 12.0959 71.2031 11.3279 74.6164 11.3279C78.0298 11.3279 81.1231 12.0959 83.8964 13.6319C86.6698 15.1252 88.8458 17.2585 90.4244 20.0319C92.0458 22.8052 92.8564 26.0052 92.8564 29.6319C92.8564 33.2585 92.0244 36.4585 90.3604 39.2319C88.7391 42.0052 86.5204 44.1599 83.7044 45.6959C80.9311 47.1892 77.8164 47.9359 74.3604 47.9359ZM74.3604 40.1279C75.9818 40.1279 77.4964 39.7439 78.9044 38.9759C80.3551 38.1652 81.5071 36.9705 82.3604 35.3919C83.2138 33.8132 83.6404 31.8932 83.6404 29.6319C83.6404 26.2612 82.7444 23.6799 80.9524 21.8879C79.2031 20.0532 77.0484 19.1359 74.4884 19.1359C71.9284 19.1359 69.7738 20.0532 68.0244 21.8879C66.3178 23.6799 65.4644 26.2612 65.4644 29.6319C65.4644 33.0025 66.2964 35.6052 67.9604 37.4399C69.6671 39.2319 71.8004 40.1279 74.3604 40.1279ZM114.213 39.1039L123.173 11.9039H132.709L119.589 47.3599H108.709L95.6529 11.9039H105.253L114.213 39.1039ZM170.701 28.8639C170.701 30.1439 170.616 31.2959 170.445 32.3199H144.525C144.739 34.8799 145.635 36.8852 147.213 38.3359C148.792 39.7865 150.733 40.5119 153.037 40.5119C156.365 40.5119 158.733 39.0825 160.141 36.2239H169.805C168.781 39.6372 166.819 42.4532 163.917 44.6719C161.016 46.8479 157.453 47.9359 153.229 47.9359C149.816 47.9359 146.744 47.1892 144.013 45.6959C141.325 44.1599 139.213 42.0052 137.677 39.2319C136.184 36.4585 135.437 33.2585 135.437 29.6319C135.437 25.9625 136.184 22.7412 137.677 19.9679C139.171 17.1945 141.261 15.0612 143.949 13.5679C146.637 12.0745 149.731 11.3279 153.229 11.3279C156.6 11.3279 159.608 12.0532 162.253 13.5039C164.941 14.9545 167.011 17.0239 168.461 19.7119C169.955 22.3572 170.701 25.4079 170.701 28.8639ZM161.421 26.3039C161.379 23.9999 160.547 22.1652 158.925 20.7999C157.304 19.3919 155.32 18.6879 152.973 18.6879C150.755 18.6879 148.877 19.3705 147.341 20.7359C145.848 22.0585 144.931 23.9145 144.589 26.3039H161.421ZM186.201 17.4079C187.353 15.5305 188.847 14.0585 190.681 12.9919C192.559 11.9252 194.692 11.3919 197.081 11.3919V20.7999H194.713C191.897 20.7999 189.764 21.4612 188.313 22.7839C186.905 24.1065 186.201 26.4105 186.201 29.6959V47.3599H177.241V11.9039H186.201V17.4079Z" fill="white"/>
</svg>
