<?xml version="1.0" standalone="no"?>
<!DOCTYPE svg PUBLIC "-//W3C//DTD SVG 20010904//EN"
 "http://www.w3.org/TR/2001/REC-SVG-20010904/DTD/svg10.dtd">
<svg version="1.0" xmlns="http://www.w3.org/2000/svg"
 width="128.000000pt" height="128.000000pt" viewBox="0 0 128.000000 128.000000"
 preserveAspectRatio="xMidYMid meet">

<g transform="translate(0.000000,128.000000) scale(0.100000,-0.100000)"
fill="#000000" stroke="none">
<path d="M624 1261 c-23 -10 -75 -51 -116 -90 l-75 -70 -44 45 c-70 71 -84 64
-138 -71 -75 -190 -70 -227 52 -353 l81 -82 -48 -49 c-73 -74 -66 -86 69 -140
61 -24 129 -46 152 -48 l43 -6 2 -190 c3 -168 5 -191 21 -201 12 -8 22 -8 35
0 15 10 17 34 20 216 l2 204 80 79 80 79 49 -48 c74 -73 86 -67 140 69 75 188
67 236 -58 367 l-70 75 45 44 c71 70 64 84 -71 138 -130 52 -192 60 -251 32z
m188 -88 c38 -14 68 -29 68 -32 0 -4 -42 -49 -94 -100 l-94 -94 -52 0 c-48 0
-55 3 -101 49 l-49 48 57 59 c104 107 145 117 265 70z m-373 -187 l94 -94 0
-52 c0 -48 -3 -55 -49 -101 l-48 -49 -64 62 c-74 74 -92 103 -92 155 0 36 47
173 59 173 4 0 49 -42 100 -94z m547 -148 c8 -15 14 -44 14 -65 0 -36 -47
-173 -59 -173 -4 0 -49 42 -100 94 l-94 94 0 52 c0 48 3 55 49 101 l48 49 64
-62 c35 -35 70 -75 78 -90z m-322 26 c9 -8 16 -19 16 -24 0 -5 -7 -16 -16 -24
-8 -9 -19 -16 -24 -16 -11 0 -40 29 -40 40 0 11 29 40 40 40 5 0 16 -7 24 -16z
m77 -180 l49 -48 -62 -64 c-74 -75 -103 -92 -156 -92 -32 0 -155 40 -171 56
-3 3 39 48 92 102 l97 97 51 -1 c47 -1 55 -6 100 -50z"/>
</g>
</svg>
