<?xml version="1.0" standalone="no"?>
<!DOCTYPE svg PUBLIC "-//W3C//DTD SVG 20010904//EN"
 "http://www.w3.org/TR/2001/REC-SVG-20010904/DTD/svg10.dtd">
<svg version="1.0" xmlns="http://www.w3.org/2000/svg"
 width="128.000000pt" height="128.000000pt" viewBox="0 0 128.000000 128.000000"
 preserveAspectRatio="xMidYMid meet">

<g transform="translate(0.000000,128.000000) scale(0.100000,-0.100000)"
fill="#000000" stroke="none">
<path d="M320 1042 c-162 -59 -301 -111 -308 -115 -16 -10 -16 -42 1 -54 6 -6
60 -28 119 -49 l108 -39 0 -126 c0 -146 7 -162 91 -204 81 -42 154 -56 284
-56 169 -1 267 24 353 88 l32 24 0 133 0 134 40 16 c22 9 43 16 45 16 3 0 5
-71 5 -158 l0 -158 -50 -49 c-28 -28 -50 -58 -50 -70 0 -12 22 -42 50 -70 42
-42 50 -55 50 -86 0 -52 16 -89 38 -89 29 0 42 21 42 69 0 40 5 50 55 102 30
32 55 65 55 74 0 9 -25 42 -55 74 l-55 58 0 167 0 166 28 10 c44 16 57 26 60
48 2 13 -4 25 -17 31 -31 17 -599 221 -613 221 -7 -1 -146 -49 -308 -108z
m560 -58 c121 -44 220 -81 220 -84 0 -8 -472 -175 -484 -172 -42 11 -456 167
-456 171 1 12 456 170 478 167 13 -2 122 -39 242 -82z m-411 -284 c73 -28 142
-50 153 -50 11 0 82 23 159 50 77 28 141 50 144 50 3 0 5 -45 5 -100 l0 -100
-32 -20 c-66 -41 -136 -55 -273 -55 -140 0 -232 19 -281 57 -23 18 -24 25 -24
119 0 54 3 99 8 99 4 0 67 -23 141 -50z m694 -352 l-27 -28 -28 27 -28 27 27
28 27 28 28 -27 28 -27 -27 -28z"/>
</g>
</svg>
