<svg version="1.1" id="Layer_1" xmlns="http://www.w3.org/2000/svg" xmlns:xlink="http://www.w3.org/1999/xlink" x="0px" y="0px"
	 width="100%" viewBox="0 0 128 128" enable-background="new 0 0 128 128" xml:space="preserve">
<path fill="#000000" opacity="1.000000" stroke="none" 
	d="
M129.000000,15.000000 
	C129.000000,31.020895 129.000000,47.041790 128.570007,63.537868 
	C121.486122,64.513672 114.832207,65.014290 108.000000,65.528328 
	C108.000000,79.082634 107.921364,92.559319 108.028076,106.034523 
	C108.097435,114.793167 99.463623,124.535660 90.215431,124.237900 
	C67.583038,123.509232 44.902737,123.635078 22.259596,124.171638 
	C12.602486,124.400467 5.550474,121.564529 1.000000,113.000000 
	C1.000000,105.979050 1.000000,98.958107 1.429615,91.462082 
	C7.180223,90.480217 12.501217,89.973412 19.000000,89.354431 
	C19.000000,79.679878 19.000000,69.954254 19.000000,60.228638 
	C19.000000,46.741764 18.995230,33.254890 19.001747,19.768023 
	C19.005808,11.366913 24.272757,6.000436 32.496239,6.000237 
	C58.803963,5.999599 85.113258,6.159738 111.418442,5.901474 
	C119.187080,5.825202 125.432655,7.521152 129.000000,15.000000 
M101.000000,90.499054 
	C101.000000,69.859520 100.915833,49.219414 101.056709,28.580847 
	C101.093872,23.135447 101.825790,17.694788 102.257805,12.000000 
	C80.520096,12.000000 58.397350,11.999162 36.274601,12.000445 
	C28.308674,12.000907 25.012747,15.260392 25.005993,23.247347 
	C24.988258,44.219749 24.994793,65.192192 25.013002,86.164597 
	C25.014093,87.419998 25.202475,88.675240 25.309305,89.999992 
	C26.848904,89.999992 28.008064,89.999992 29.167227,89.999992 
	C43.648186,90.000008 58.129349,90.041870 72.609962,89.971230 
	C76.328163,89.953087 78.279846,90.963577 78.111053,95.271194 
	C77.939720,99.643639 78.389694,104.093964 79.068748,108.431717 
	C79.804703,113.132988 84.930786,117.666695 89.160522,117.982208 
	C93.667938,118.318436 99.016640,114.845612 99.920288,109.642853 
	C100.950554,103.711090 100.696106,97.556190 101.000000,90.499054 
M12.602209,97.000000 
	C10.825204,97.000000 9.048198,97.000000 7.000055,97.000000 
	C7.000055,99.958260 6.865161,102.436920 7.024525,104.896507 
	C7.574076,113.378212 11.624393,117.791252 20.090117,117.915932 
	C38.548878,118.187790 57.014412,117.999947 74.158089,117.999947 
	C73.162155,111.105003 72.164154,104.195702 71.124779,97.000000 
	C52.170116,97.000000 32.874218,97.000000 12.602209,97.000000 
M123.000000,33.505028 
	C122.999657,29.009094 123.345375,24.477919 122.892242,20.028093 
	C122.512527,16.299286 120.669563,13.311742 116.179214,12.959727 
	C111.830292,12.618801 108.378021,14.989535 108.226494,18.552277 
	C107.670959,31.614202 108.006386,44.714020 108.006386,57.709106 
	C113.325150,57.709106 118.062126,57.709106 123.000000,57.709106 
	C123.000000,49.780720 123.000000,42.141922 123.000000,33.505028 
z"/>
<path fill="#FFFFFF" opacity="1.000000" stroke="none" 
	d="
M129.000000,14.525872 
	C125.432655,7.521152 119.187080,5.825202 111.418442,5.901474 
	C85.113258,6.159738 58.803963,5.999599 32.496239,6.000237 
	C24.272757,6.000436 19.005808,11.366913 19.001747,19.768023 
	C18.995230,33.254890 19.000000,46.741764 19.000000,60.228638 
	C19.000000,69.954254 19.000000,79.679878 19.000000,89.354431 
	C12.501217,89.973412 7.180223,90.480217 1.429615,90.993507 
	C1.000000,61.058086 1.000000,31.116175 1.000000,1.087132 
	C43.666557,1.087132 86.333252,1.087132 128.999969,1.082030 
	C129.000000,5.401867 129.000000,9.726806 129.000000,14.525872 
z"/>
<path fill="#FFFFFF" opacity="1.000000" stroke="none" 
	d="
M1.000000,113.471199 
	C5.550474,121.564529 12.602486,124.400467 22.259596,124.171638 
	C44.902737,123.635078 67.583038,123.509232 90.215431,124.237900 
	C99.463623,124.535660 108.097435,114.793167 108.028076,106.034523 
	C107.921364,92.559319 108.000000,79.082634 108.000000,65.528328 
	C114.832207,65.014290 121.486122,64.513672 128.570007,64.006531 
	C129.000000,85.620697 129.000000,107.241394 129.000000,128.931046 
	C86.333382,128.931046 43.666706,128.931046 1.000000,128.931046 
	C1.000000,123.921165 1.000000,118.931786 1.000000,113.471199 
z"/>
<path fill="#FFFFFF" opacity="1.000000" stroke="none" 
	d="
M101.000000,90.998657 
	C100.696106,97.556190 100.950554,103.711090 99.920288,109.642853 
	C99.016640,114.845612 93.667938,118.318436 89.160522,117.982208 
	C84.930786,117.666695 79.804703,113.132988 79.068748,108.431717 
	C78.389694,104.093964 77.939720,99.643639 78.111053,95.271194 
	C78.279846,90.963577 76.328163,89.953087 72.609962,89.971230 
	C58.129349,90.041870 43.648186,90.000008 29.167227,89.999992 
	C28.008064,89.999992 26.848904,89.999992 25.309305,89.999992 
	C25.202475,88.675240 25.014093,87.419998 25.013002,86.164597 
	C24.994793,65.192192 24.988258,44.219749 25.005993,23.247347 
	C25.012747,15.260392 28.308674,12.000907 36.274601,12.000445 
	C58.397350,11.999162 80.520096,12.000000 102.257805,12.000000 
	C101.825790,17.694788 101.093872,23.135447 101.056709,28.580847 
	C100.915833,49.219414 101.000000,69.859520 101.000000,90.998657 
M42.668808,50.000004 
	C39.825878,50.326759 36.982944,50.653515 34.216240,50.971512 
	C33.797398,54.511574 33.474575,57.101295 37.982040,57.058254 
	C53.753727,56.907646 69.529190,57.094742 85.298615,56.853138 
	C86.877808,56.828941 88.425728,54.762466 89.988159,53.643814 
	C88.647453,52.441025 87.440758,51.006069 85.914352,50.124977 
	C85.038139,49.619190 83.643326,50.001759 82.481972,50.001541 
	C69.531403,49.999100 56.580837,50.000000 42.668808,50.000004 
M52.501854,71.000000 
	C47.506931,71.000175 42.499130,70.806770 37.526207,71.137619 
	C36.293922,71.219612 35.174709,73.001106 34.003521,74.001396 
	C35.175640,75.000755 36.337437,76.855919 37.521435,76.870201 
	C53.502903,77.062912 69.488968,77.095627 85.468819,76.844543 
	C86.993698,76.820580 88.484520,74.628090 89.991158,73.442329 
	C88.483635,72.628227 86.989151,71.138031 85.466499,71.108681 
	C74.814598,70.903358 64.156876,71.000008 52.501854,71.000000 
M52.481388,37.000000 
	C55.794285,36.999893 59.168716,37.374638 62.394699,36.845058 
	C64.063217,36.571152 65.468407,34.693119 66.992561,33.539829 
	C65.621078,32.365105 64.284943,30.225374 62.872334,30.173645 
	C54.270603,29.858673 45.646275,29.878868 37.044827,30.199152 
	C35.983978,30.238655 34.429993,32.645447 34.234257,34.106579 
	C34.126980,34.907379 36.328758,36.773643 37.584106,36.865578 
	C42.197426,37.203442 46.850403,36.999844 52.481388,37.000000 
z"/>
<path fill="#FFFFFF" opacity="1.000000" stroke="none" 
	d="
M13.090263,97.000000 
	C32.874218,97.000000 52.170116,97.000000 71.124779,97.000000 
	C72.164154,104.195702 73.162155,111.105003 74.158089,117.999947 
	C57.014412,117.999947 38.548878,118.187790 20.090117,117.915932 
	C11.624393,117.791252 7.574076,113.378212 7.024525,104.896507 
	C6.865161,102.436920 7.000055,99.958260 7.000055,97.000000 
	C9.048198,97.000000 10.825204,97.000000 13.090263,97.000000 
z"/>
<path fill="#FFFFFF" opacity="1.000000" stroke="none" 
	d="
M123.000000,34.004074 
	C123.000000,42.141922 123.000000,49.780720 123.000000,57.709106 
	C118.062126,57.709106 113.325150,57.709106 108.006386,57.709106 
	C108.006386,44.714020 107.670959,31.614202 108.226494,18.552277 
	C108.378021,14.989535 111.830292,12.618801 116.179214,12.959727 
	C120.669563,13.311742 122.512527,16.299286 122.892242,20.028093 
	C123.345375,24.477919 122.999657,29.009094 123.000000,34.004074 
z"/>
<path fill="#000000" opacity="1.000000" stroke="none" 
	d="
M43.149540,50.000000 
	C56.580837,50.000000 69.531403,49.999100 82.481972,50.001541 
	C83.643326,50.001759 85.038139,49.619190 85.914352,50.124977 
	C87.440758,51.006069 88.647453,52.441025 89.988159,53.643814 
	C88.425728,54.762466 86.877808,56.828941 85.298615,56.853138 
	C69.529190,57.094742 53.753727,56.907646 37.982040,57.058254 
	C33.474575,57.101295 33.797398,54.511574 34.216240,50.971512 
	C36.982944,50.653515 39.825878,50.326759 43.149540,50.000000 
z"/>
<path fill="#000000" opacity="1.000000" stroke="none" 
	d="
M53.001434,71.000000 
	C64.156876,71.000008 74.814598,70.903358 85.466499,71.108681 
	C86.989151,71.138031 88.483635,72.628227 89.991158,73.442329 
	C88.484520,74.628090 86.993698,76.820580 85.468819,76.844543 
	C69.488968,77.095627 53.502903,77.062912 37.521435,76.870201 
	C36.337437,76.855919 35.175640,75.000755 34.003521,74.001396 
	C35.174709,73.001106 36.293922,71.219612 37.526207,71.137619 
	C42.499130,70.806770 47.506931,71.000175 53.001434,71.000000 
z"/>
<path fill="#000000" opacity="1.000000" stroke="none" 
	d="
M51.984924,37.000000 
	C46.850403,36.999844 42.197426,37.203442 37.584106,36.865578 
	C36.328758,36.773643 34.126980,34.907379 34.234257,34.106579 
	C34.429993,32.645447 35.983978,30.238655 37.044827,30.199152 
	C45.646275,29.878868 54.270603,29.858673 62.872334,30.173645 
	C64.284943,30.225374 65.621078,32.365105 66.992561,33.539833 
	C65.468407,34.693119 64.063217,36.571152 62.394699,36.845058 
	C59.168716,37.374638 55.794285,36.999893 51.984924,37.000000 
z"/>
</svg>