<?xml version="1.0" standalone="no"?>
<!DOCTYPE svg PUBLIC "-//W3C//DTD SVG 20010904//EN"
 "http://www.w3.org/TR/2001/REC-SVG-20010904/DTD/svg10.dtd">
<svg version="1.0" xmlns="http://www.w3.org/2000/svg"
 width="128.000000pt" height="128.000000pt" viewBox="0 0 128.000000 128.000000"
 preserveAspectRatio="xMidYMid meet">

<g transform="translate(0.000000,128.000000) scale(0.100000,-0.100000)"
fill="#000000" stroke="none">
<path d="M435 1261 c-148 -69 -166 -250 -39 -388 43 -46 235 -213 245 -213 4
0 64 50 134 111 166 145 216 225 201 322 -24 148 -163 227 -288 164 l-45 -23
-43 23 c-52 28 -111 29 -165 4z m167 -102 l39 -41 39 41 c36 37 45 41 89 41
103 0 162 -106 115 -206 -16 -33 -139 -157 -211 -211 l-33 -25 -36 27 c-20 15
-73 64 -119 109 -64 63 -86 91 -94 124 -15 56 1 116 41 154 25 23 39 28 81 28
46 0 53 -4 89 -41z"/>
<path d="M2 798 c4 -153 8 -182 32 -255 33 -101 100 -204 195 -298 l71 -69 0
-88 0 -88 340 0 340 0 0 88 0 88 71 69 c95 94 162 197 195 298 24 73 28 102
32 255 l4 172 -47 0 c-52 0 -77 -10 -118 -49 -41 -38 -55 -69 -62 -142 -9 -93
-25 -151 -41 -145 -122 47 -216 21 -303 -84 -27 -33 -55 -68 -60 -77 -11 -17
-11 -17 -22 0 -5 9 -33 44 -60 77 -87 105 -181 131 -303 84 -16 -6 -33 53 -41
148 -11 116 -80 188 -180 188 l-47 0 4 -172z m132 44 c7 -15 16 -61 19 -102 9
-107 55 -196 157 -302 l79 -83 25 25 25 25 -71 78 c-39 43 -68 80 -65 83 10
10 85 17 112 10 36 -9 98 -68 145 -138 l40 -60 0 -154 0 -154 -110 0 -110 0 0
67 0 66 -103 106 c-156 160 -197 256 -197 464 0 114 1 117 20 107 11 -6 26
-23 34 -38z m1056 -222 c-24 -111 -74 -196 -186 -311 l-104 -106 0 -66 0 -67
-110 0 -110 0 0 154 0 154 40 60 c47 70 109 129 145 138 27 7 102 0 112 -10 3
-3 -26 -40 -65 -83 l-71 -78 25 -25 25 -25 79 83 c100 104 148 195 156 297 7
83 19 121 48 141 21 14 21 14 24 -93 2 -60 -2 -133 -8 -163z"/>
</g>
</svg>
