<!-- by TradingView --><svg width="56" height="56" viewBox="0 0 56 56" xmlns="http://www.w3.org/2000/svg"><path fill="#30A1F5" d="M0 0h56v56H0z"/><path d="M33.82 15c1.55 0 2.33 0 3.03.23.62.2 1.2.53 1.7.96.55.5.97 1.18 1.81 2.54l3.7 6.02c.56.9.83 1.36.91 1.83.07.42.02.85-.13 1.24-.17.45-.53.83-1.25 1.58L29.83 43.8c-.64.67-.96 1-1.33 1.13-.33.1-.68.1-1 0-.37-.13-.7-.46-1.33-1.14L12.4 29.4c-.72-.75-1.08-1.13-1.25-1.58-.15-.4-.2-.82-.13-1.24.08-.47.35-.93.9-1.83l3.7-6.02c.85-1.36 1.26-2.04 1.83-2.54a4.8 4.8 0 0 1 1.69-.96c.7-.23 1.48-.23 3.03-.23h11.64Zm-1.18 5.4a.61.61 0 0 0-1.15 0l-1.37 3.68a.81.81 0 0 1-.47.48l-3.69 1.36a.61.61 0 0 0 0 1.15l3.69 1.37c.22.08.4.25.47.47l1.37 3.69c.2.53.95.53 1.15 0L34 28.91c.08-.22.26-.39.48-.47l3.68-1.36a.61.61 0 0 0 0-1.15l-3.68-1.37a.81.81 0 0 1-.48-.48l-1.36-3.68Z" fill="#fff"/></svg>